<svg version="1.0" xmlns="http://www.w3.org/2000/svg" width="120" height="124" viewBox="0 0 900 933">
        <path
                d="M1.7 5.7c-.4.3-.7 209.1-.7 464V933h899V5H451.2C204.3 5 2 5.3 1.7 5.7zm40.8 24.2c.3.5.1 1.2-.4 1.5-.5.4-1.2 4.1-1.5 8.4-.6 7.3-2.4 15.9-4.7 22.7-.6 1.6-1.5 4.3-1.9 6-.8 2.8-1.8 5.3-5.1 13.2-1.6 4-2.6 4.1-4.1.5-1.2-3-2.8-6.8-5.2-12.5-1.3-3-1.6-7.5-1.6-22.2V29h11.9c6.6 0 12.2.4 12.6.9zm34.6-.5c1.2 1.3-2.6 25.2-5.3 33.1-.5 1.6-1.2 4.1-1.5 5.5-.2 1.4-1.1 3.8-1.8 5.5-.8 1.6-2.2 4.9-3.2 7.2-2.1 5-2.9 5.3-4.5 1.5-1.2-3-2.8-6.8-5.2-12.5-.9-2.1-1.6-4.5-1.6-5.5 0-.9-.6-3.7-1.4-6.2-1.9-6.1-4.6-20.9-4.6-25.4V29h14.3c7.9 0 14.6.2 14.8.4zm36.6 1.8c-.3 1.3-.8 5.4-1.2 9.3-.9 9.4-4.6 23.7-8.8 34.5-4.5 11.3-5 11.8-6.8 7.2-.6-1.5-1.7-3.8-2.4-5.2-.7-1.4-1.6-4-2-5.7-.3-1.8-1.1-3.5-1.6-3.8-.5-.4-.9-1.8-.9-3.3 0-1.5-.7-4-1.5-5.6-.8-1.5-1.5-4.3-1.5-6.1 0-1.8-.7-5.2-1.5-7.5S84 38.1 84 34.9V29h30.2l-.5 2.2zm36 0c-.3 1.3-.9 5.7-1.3 9.8-.3 4.1-1.3 9-2 10.9-.8 1.8-1.4 4.5-1.4 5.8 0 2.5-2.2 10-4.6 15.8-3.2 7.8-4.9 11.5-5.5 11.5-.3 0-1.1-1.2-1.8-2.8-.8-1.5-1.7-3.5-2.2-4.4-2.8-5.4-6.1-17.3-7.9-27.8-.5-3-1.4-7.1-2-9-.5-1.9-1-5.4-1-7.7V29h30.2l-.5 2.2zm35.6-1.5c.7 1.3-1.3 17.5-2.9 22.9-.8 2.8-1.4 6.2-1.4 7.5 0 1.3-.7 3.3-1.5 4.3-.8 1.1-1.5 2.8-1.5 3.8 0 1.7-2 6.8-4.6 12-.8 1.4-1.4 3.4-1.4 4.5-.1 1.6-.3 1.5-2-.6-1.1-1.3-2-3-2-3.8 0-.8-.6-2.7-1.4-4.1-2.8-5.5-6.4-17.5-7.7-25.2-.5-3-1.3-7.1-1.9-9-.5-1.9-1-5.6-1-8.2V29h14.4c8 0 14.7.3 14.9.7zm37-.1c.3.4.2 1.4-.3 2.3-.5.9-1.3 5.5-1.9 10.1-.6 4.7-1.5 10.5-2.2 13-2.4 9.6-4.4 15.6-5.6 17.1-.7.8-1.3 2.2-1.3 2.9 0 2.2-3.4 9-4.4 8.7-.5-.2-1.3-1-1.6-1.8-2.6-5.4-4-9.1-5.5-13.9-.9-3-2.1-6.9-2.7-8.5-.6-1.7-1.4-5.5-1.9-8.5s-1.3-7.5-1.8-10c-.6-2.5-1-6.2-1.1-8.3V29h14.8c8.2 0 15.2.3 15.5.6zm35.3 1.8c-.2 1.2-.8 5.9-1.2 10.6-.3 4.7-1.3 9.7-2 11.2-.8 1.5-1.4 4.3-1.4 6.2 0 1.9-.4 3.7-.9 4.1-.5.3-1.3 2-1.7 3.8-.6 3.1-1.7 5.8-5.5 14-1.6 3.6-1.8 3.7-2.8 1.9-.6-1.2-1.1-2.9-1.1-4 0-1-.9-2.9-2-4.2-1.1-1.3-2-3.1-2-4 0-1-.7-2.3-1.5-3-.8-.7-1.5-2.7-1.5-4.4-.1-1.7-.7-4.2-1.5-5.6-.8-1.4-1.4-4.1-1.5-6 0-1.9-.7-5.7-1.5-8.4s-1.5-7.1-1.5-9.8V29l15.1.2c14.6.2 15 .3 14.5 2.2zm33.8-1.8c.9.3 1.3 1.1 1 1.6-.4.6-.6 4.7-.5 9.2.1 5.2-.4 9.7-1.3 12.5-.9 2.4-1.6 5.4-1.6 6.7 0 1.3-.7 4-1.6 6.1-.9 2.1-2.4 5.4-3.2 7.3-.8 1.9-2.1 4.8-2.8 6.3-.8 1.6-1.4 3.5-1.4 4.3 0 .8-.4 1.4-.8 1.4-.8 0-2-2.2-4.7-8.5-.6-1.7-2-4.7-2.9-6.8-.9-2.1-1.6-5-1.6-6.5-.1-1.5-.7-3.8-1.5-5.2-.8-1.4-1.5-4.1-1.5-6 0-1.9-.7-6-1.5-9s-1.5-7.4-1.5-9.8V29h12.9c7.1 0 13.6.3 14.5.6zm38.6-.1c.4.2.1 2.8-.6 5.7-.8 2.9-1.4 7.1-1.4 9.5 0 2.3-.5 5.4-1.1 7-.6 1.5-1.4 4.8-1.9 7.3-1.2 6.8-6.2 19.4-8.1 20.6-.5.3-.9 1.4-.9 2.5 0 1-.4 1.9-.8 1.9-1.2 0-5.6-9.3-7.7-16-3.1-10.3-3.4-11.5-4.1-18.5-.4-3.9-1.1-7.3-1.5-7.6-.5-.3-1.2-3.3-1.5-6.7l-.7-6.1h14.8c8.1-.1 15.1.1 15.5.4zm36 .4c0 .6-.4 1.3-1 1.6-.5.3-1 3.4-1 6.9 0 3.4-.6 8.5-1.4 11.2-.8 2.7-1.7 6.8-2.1 9.1-.4 2.4-1 4.3-1.5 4.3-.4 0-1 1.8-1.3 4.1-.6 4.6-1.4 5.9-2.6 4-.5-.7-1.7-1.1-2.7-.8-1.7.4-1.7.6.4 1.2 2.8.9 2.9 4.7.3 10.6l-1.9 4.3-3.1-6.6c-1.7-3.6-3.1-7.1-3.1-7.9 0-.8-.7-2.3-1.5-3.3-.8-1.1-1.5-3.2-1.5-4.8 0-1.5-.6-4.2-1.4-6-1.3-3-3.1-13.4-4.3-24.6l-.5-4.2h15.1c8.8 0 15.1.4 15.1.9zm36 .6c0 .8-.4 1.5-.9 1.5s-1.1 3.9-1.3 8.6c-.3 5.9-.9 9-1.9 9.8-.9.7-1.4 3.2-1.5 7.1 0 3.3-.8 7.8-1.6 10-1.6 4-3.8 5.9-3.8 3.2 0-.9-.7-2.3-1.7-3.2-1.5-1.6-1.7-1.6-2.6 0-.5.9-.6 2.8-.2 4.2.5 2 .9 2.2 2 1.3 1.8-1.5 2.9.3 2.1 3.6-.5 1.7-1.2 2.4-2.1 2-1.1-.4-1.3.1-.8 2.4.9 4.9-1.5 3.5-2.8-1.5-.6-2.5-1.5-4.5-1.9-4.5-.4 0-1.1-1.6-1.4-3.5-.4-1.9-1.3-4.7-2.1-6.2s-1.5-3.8-1.5-4.9c0-1.2-.7-3.5-1.5-5-.8-1.6-1.5-4.9-1.5-7.5 0-2.5-.5-5-1.1-5.6-.6-.6-1.3-3.8-1.6-7.2l-.6-6.1h15.2c12.8 0 15.1.2 15.1 1.5zm34.9-.6c.9.6 1 1.1.2 1.5-.6.4-1.1 3.7-1.1 7.9 0 8.3-.7 11.7-2.5 11.7-.9 0-1.1 1.4-.7 5 .3 3.4-.1 6.1-1.2 8.4-.9 1.9-1.6 4.2-1.6 5.3 0 1-.7 2.7-1.5 3.7-.8 1.1-1.5 2.8-1.5 3.7 0 2-3.1 7.9-4.2 7.9-.7 0-2.8-6.5-2.8-8.7 0-.6-.4-1.3-.8-1.5-1.4-.6-5.2-8.8-5.2-11.4 0-1.3-.7-4.1-1.5-6.1-.8-1.9-1.5-5-1.5-6.7 0-1.7-.7-5.6-1.5-8.6s-1.5-7.2-1.5-9.3V29h13.8c7.5 0 14.3.4 15.1.9zm37.1 0c.3.1-.2.7-1 1.4-1.1.9-1.5 3.5-1.6 10.1 0 6-.4 9.1-1.2 9.4-.7.2-1.2 2.5-1.2 5.7 0 3.4-.5 5.9-1.5 6.9-.8.8-1.5 2.8-1.5 4.4 0 1.7-.7 4.4-1.5 6.1-.8 1.7-2.2 4.5-3 6.2-.8 1.7-1.5 3.8-1.5 4.7-.1 2.3-3.9-2.6-4-5 0-.9-.6-2.9-1.4-4.5-3.7-7.4-7.6-22.2-7.6-28.9 0-2.2-.4-4.4-.9-5-.5-.5-1.2-3.5-1.6-6.7l-.6-5.7 14.8.4c8.1.2 15 .5 15.3.5zm37-.2c0 .5-.7 3.3-1.5 6.3s-1.5 7.2-1.5 9.3c0 3.6-3 14.4-5 17.9-.6 1-1 3.2-1 5 0 1.8-.7 4.2-1.5 5.2-.8 1.1-1.5 2.7-1.5 3.6 0 .9-.9 3.3-1.9 5.4-1.8 3.3-2.1 3.5-3 1.9-1.8-3.4-5.1-12.8-5.1-14.4 0-.9-.7-3-1.5-4.5-.8-1.6-1.5-3.8-1.5-5 0-1.1-.5-2.5-1.1-3.1-.6-.6-1.3-4.6-1.6-8.9-.3-4.4-.9-8.4-1.3-8.9-.4-.6-1-3.1-1.3-5.8L480 29h15.5c8.5 0 15.5.3 15.5.7zm35.1 1.3c-.2.8-.9 6-1.6 11.5-.6 5.5-1.6 11-2.3 12.2-.7 1.2-1.2 3.7-1.2 5.5 0 1.8-.7 4.2-1.5 5.2-.8 1.1-1.5 2.8-1.5 3.9 0 1-.6 3.1-1.4 4.5-.8 1.5-2.3 4.9-3.4 7.6l-2 5-3.1-6.5c-1.7-3.6-3.1-7.7-3.1-9 0-1.3-.7-3.3-1.5-4.3-.8-1.1-1.5-3.2-1.5-4.7s-.6-4-1.4-5.6c-1.4-2.8-3.5-13.8-4.4-22.6l-.4-4.8 15.4.3c13 .3 15.2.5 14.9 1.8zm36.2-1.3c.4.3.2 1.3-.5 2-.6.8-1.4 5.4-1.6 10.1-.2 4.8-.9 9.6-1.5 10.7-.6 1.1-1.4 4-1.8 6.5-.4 2.5-1.2 6.1-1.9 8-2.7 7.4-4.4 11.6-6.1 15.4l-1.8 3.9-1.7-3.9c-.9-2.1-2.2-5.3-2.9-6.9-.7-1.7-2-4.7-2.9-6.8-.9-2.1-1.6-4.5-1.6-5.5 0-.9-.6-3.7-1.4-6.2-1.9-5.9-4.6-20.6-4.6-24.8V29h14.8c8.2 0 15.2.3 15.5.7zm35.9 1.3c-.2.8-1 6.1-1.7 11.7-.7 5.5-1.8 11-2.4 12.1-.6 1.2-1.1 3-1.1 4.2 0 4.5-8.3 26-10.1 26-.7 0-4.8-9-6-13-.4-1.4-1.2-3.9-1.7-5.5-2.7-7.8-7.2-29.2-7.2-34.3v-3.3l15.3.3c12.9.3 15.1.5 14.9 1.8zm36.4.6c-.4 1.4-1.3 6.6-2.1 11.7-1.7 10.7-3.2 16.9-5.1 21.5-.8 1.8-1.4 3.9-1.4 4.7 0 1.4-1.1 4.1-5.1 12.9l-1.8 3.9-1.7-3.9c-.9-2.1-2.3-5.1-3-6.6-.8-1.4-1.4-3.4-1.4-4.5 0-1-.7-2.7-1.5-3.7-.8-1.1-1.5-3.1-1.5-4.5-.1-1.4-.7-3.7-1.5-5.1-.8-1.4-1.5-4.3-1.5-6.5s-.7-6.9-1.5-10.5c-.8-3.6-1.4-7.7-1.5-9.3V29h31.2l-.6 2.6zm35-1.5c.2.4 0 1-.6 1.4-.5.3-1 4.5-1 9.2 0 4.9-.7 11.1-1.6 14.2-.9 3.1-2.3 8.1-3.2 11.1-.8 3-2.8 8.2-4.2 11.5-1.5 3.3-2.9 6.7-3.2 7.5-.6 1.8-5.8-9.1-8.1-17-4.7-16.4-6.7-25.6-7.4-33.8l-.5-5.3 14.7.3c8 .1 14.8.5 15.1.9zm36 1.4c-.3 1.1-.9 5.6-1.2 10-.4 4.4-1.2 8.9-1.7 10-.6 1.1-1.4 4.2-1.8 7-.6 4.8-1.7 8.5-4.6 15.2-.7 1.7-1.3 3.5-1.3 4s-.9 2.6-2 4.7l-1.9 3.9-1.7-3.9c-.9-2.2-2.2-5.3-2.9-6.9-.7-1.7-2-4.7-2.9-6.8-.9-2.1-1.6-4.9-1.6-6.3 0-1.4-.7-3.8-1.5-5.4-.9-1.7-1.6-6.2-1.8-10.7-.1-4.3-.5-8.3-.9-8.8-.5-.9-1.2-6.2-.9-7.5.1-.3 6.6-.5 14.7-.5 14.1 0 14.5 0 14 2zm37.1-1.2c-.3.8-1 4.9-1.7 9.3-.6 4.3-1.6 9.9-2.2 12.4-.6 2.5-1.4 6.3-1.8 8.5-.9 4.7-2.3 8.6-6.4 17.8-3 6.8-3.1 6.9-4.8 4.7-1-1.2-1.8-3-1.8-3.9 0-.9-.4-2.1-.9-2.7-1.4-1.4-5.1-12.5-5.1-15.2 0-1.3-.7-4.5-1.6-7.3-1.1-3.2-1.5-7.1-1.2-11.3.3-4.9.1-6.3-.9-5.9-.7.3-1.3.1-1.3-.5 0-.5-.3-2.4-.6-4.1l-.6-3.1h15.7c12.7 0 15.6.3 15.2 1.3zm36.3.4c0 1-.7 4.3-1.5 7.3s-1.5 7-1.5 8.9c0 1.8-.7 5.6-1.6 8.5-.9 2.8-2.3 7.3-3.1 10.1-1.6 5.4-3.5 10.6-6.3 17l-1.8 4-1.7-4c-7.1-16.1-9.3-23.6-10.5-34.5-.4-3.6-1.2-8.1-1.9-10-.6-1.9-1.1-4.7-1.1-6.2V29h15.5c14.1 0 15.5.2 15.5 1.7zm32-1.2c0 .3-1.1 1.7-2.5 3.1-1.4 1.4-2.5 3-2.5 3.6 0 .6-.8 2-1.7 3.1-2.5 2.7-2.5 20.7 0 25.6 2.1 4.2 2.2 7.5.2 9.1-.8.7-1.5 2-1.5 2.9 0 1-.9 3.5-1.9 5.7l-2 3.9-2.7-6c-1.4-3.3-3-7.4-3.4-9-.5-1.7-1.3-4.4-1.9-6-2.7-7.7-7.1-28.9-7.1-34.3 0-2.2.2-2.2 13.5-2.2 7.4 0 13.5.2 13.5.5zm58 4.1c0 2.7-.4 4.3-1 3.9-.5-.3-1-1.2-1-1.9s-.9-2.1-2-3.1c-2.8-2.5-2.5-3.5 1-3.5 2.9 0 3 .2 3 4.6zm-30.5 2c7.7 3 10.6 10.2 8.1 19.9-.6 2.5-.2 3.5 2.3 6.3 3.1 3.3 4 6.2 2 6.2-.5 0-2.8-1.4-5-3.2-3.7-3-4.2-3.1-7.2-2-8.2 3-14.5-.3-18-9.4-2.7-7.1.6-14.7 7.8-17.9 4-1.8 5.2-1.8 10 .1zm30.3 41.9l-.3 3.4-1.6-3.7c-1.4-3.4-1.4-4 0-7.2l1.6-3.5.3 3.7c.2 2.1.2 5.4 0 7.3zm0 36.4c.2.6-162.9 1-435.2 1-239.6 0-435.6-.4-435.6-.8s.2-1 .4-1.2c.9-.9 870.1.1 870.4 1zm-409 17.9l-.3 6.7-5 .3c-2.7.2-5.5.8-6.2 1.4-1.9 1.5-1.7 7.5.3 8.2 2.9 1.1 17.9.7 19.2-.6.8-.8 1.2-4.9 1.2-12V125h27v6.4c0 7-.7 8.1-5.3 7.8-4.1-.3-6.7 1.4-6.7 4.6 0 4.4 1.6 5.2 10.1 5.2 11.5 0 10.9.6 10.9-12.6V125h27.5v6.7l-.1 6.8-5.2.3c-4.5.3-5.5.7-6.4 2.8-.9 1.8-.8 3 .3 5.1.7 1.6 1.5 3.1 1.7 3.5.2.5-1 .8-2.7.8H537v-14h5.5c4.8 0 5.7-.3 6.4-2.2.4-1.2.5-3.4.1-4.8-.6-2.4-1-2.5-9.7-2.8-6.6-.2-9.3.1-10.1 1.1-.6.7-1.2 5.8-1.3 11.6-.2 8.8-.5 10.3-2.1 11.2-1 .6-7 .9-13.4.7l-11.5-.3.3-7.5.3-7.5 4.3.3c5 .4 7.2-1 7.2-4.7 0-4.3-1.7-5.1-10.6-5.1-10.6 0-10.8.3-10.5 12.4.3 12.6.3 12.6-14.1 12-6.2-.3-11.5-.7-11.8-.9-.3-.2-.6-3.3-.8-6.9l-.2-6.6h4.8c5.4 0 7.2-1.2 7.2-5 0-4.2-1.7-5-11-5-5.4 0-9.1.5-9.8 1.2-.8.8-1.2 4.8-1.2 11.4 0 6.9-.4 10.5-1.2 11.1-.7.6-6.6 1-13 1.1H429v-14.7l5.1-.3c6.1-.4 7.9-2.1 6.3-6.5-.9-2.7-1.1-2.8-9.6-3.1-11.6-.4-11.8-.1-11.8 13.3 0 7.7-.3 10.4-1.4 10.8-.7.3-6.6.5-13 .4H393v-6.4-7.1c0-.4 2.2-.9 5-1.2 5-.6 7-1.9 7-5 0-3.5-1.9-4.4-9.7-5.1-8.7-.7-12.3.3-12.4 3.5v9.8c-.1 12.7.9 11.9-13.5 11.6l-12.4-.2-.1-5.8c-.1-3.2-.2-6.4-.3-7.1-.1-.6 1.2-1.3 2.9-1.5 5.5-.5 7.4-1.2 8.5-3.3.9-1.6.8-2.6-.5-4.5-1.4-2.2-2.2-2.4-10-2.4-11.2 0-11.7.5-10.9 11.5.4 4.5.4 9.4 0 10.9l-.6 2.6-11.5-.4c-6.3-.3-11.9-.8-12.5-1.1-.5-.3-1-3.5-1-7.1V137h4.8c2.6 0 5.3-.5 6-1.2 1.4-1.4 1.6-5.7.3-7.7-1.1-1.8-15.6-2.6-19.5-1.1-2.6.9-2.6 1-2.6 12.5V151h-25l-.2-3.3c-.4-9.6-.3-10.2 2.5-10.5 3.2-.4 3.5.8.7 2.6-2.5 1.5-2.8 7.7-.4 8.6 2.7 1 19.2.7 19.9-.4.6-.9 1-6.7 1.4-20.3l.1-2.7h25.1l-.3 6.7-.3 6.8-4.5.3c-5.2.4-7 1.6-7 4.7 0 5.2.5 5.5 11.1 5.5 9.8 0 10 0 10.9-2.6.6-1.4 1-6.8 1-12V125h26v6.3c0 7.1-1.1 8.8-5 8-4.3-.8-7 1.2-7 5.1 0 2.2.6 3.6 1.6 4 2.3.9 16.7.7 18.1-.2.8-.5 1.3-4.5 1.5-11.7l.3-11 13.3-.3 13.3-.3-.3 6.8-.3 6.8-4.2.6c-5 .6-7.3 2.4-7.3 5.5 0 3.4 2.8 4.4 11.9 4.4 10 0 10.3-.4 10-13.8l-.2-9.7 13.7-.3 13.7-.3-.3 6.8-.3 6.8-4.5.3c-7 .5-10.2 4.8-6.4 8.6 1.2 1.2 3.6 1.6 9.9 1.6 10.4 0 10.5-.2 10.5-13.8 0-5.4.2-10.1.4-10.3.2-.2 6.3-.3 13.6-.1l13.1.3-.3 6.7zm-434.7-6.4c.2.3.2 3.3-.1 6.8l-.5 6.3-4 .3c-4.6.4-7.5 2.6-7.5 5.7 0 3.8 2.1 4.6 11.7 4.3l8.8-.3.3-11.8.3-11.7h28l-.3 6.7-.3 6.8-5 .5c-4 .4-5.2 1-6.1 2.9-.7 1.4-.9 3.3-.5 4.5.7 1.8 1.8 2.1 8.2 2.4 12.4.5 11.9 1.1 11.9-12.3V125h28v14h-4.9c-5.7 0-7.4 1.5-6.9 6.2l.3 3.3 8.8.3c5.9.2 9.4-.1 10.4-.9 1.1-1 1.4-3.5 1.2-11.8l-.3-10.6 13.7-.3 13.7-.3V139h-3.4c-6.2 0-8.6 1.5-8.6 5.4 0 2.2.6 3.6 1.6 4 2.9 1.1 16.9.7 18.2-.6.8-.8 1.2-4.9 1.2-12V125h27v14h-4.1c-2.2 0-4.9.5-6 1-2.2 1.2-2.6 5.9-.7 7.8 1.4 1.4 16.6 1.6 18.7.3 1.1-.7 1.5-3.6 1.6-11.8l.1-10.8 13.2-.3 13.2-.3v14.9l-3.9-.5c-5.1-.7-8.1 1-8.1 4.5 0 4.5 1.6 5.2 11.1 5.2 6.6 0 9.1-.4 10.3-1.6 1.5-1.4 1.6-1.3 1.6 1s-.4 2.6-3.8 2.6c-2.2 0-7.2.3-11.3.6-4.1.3-8 .1-8.8-.4-.8-.6-1.4-3.4-1.6-7.6l-.3-6.6h4.6c5.6 0 6.8-.7 7.7-4.1 1.1-4.5-1.4-5.9-10.9-5.9-5.7 0-8.7.4-9.4 1.3-.6.7-1.3 6.2-1.4 12.3l-.3 10.9-11.2.3c-14.6.4-15.3.1-15.3-8.3V137h4.8c5.4 0 7.2-1.2 7.2-5 0-4.3-1.7-5-11.2-5-10.3 0-9.7-.9-10.1 14.5l-.2 10-10 .3c-5.5.1-11.5 0-13.2-.3l-3.3-.6V137h4.8c5.5 0 7.2-1.2 7.2-5.1 0-4.2-1.9-5-11.7-4.7l-8.8.3-.5 12-.5 12-12.8-.2c-7.1 0-13.1-.4-13.4-.6-.3-.3-.5-3.4-.5-6.9l-.1-6.3 5.2-.5c6.6-.7 8.6-3.4 6.1-8.1-.9-1.7-2.2-1.9-9.9-1.9-6.1 0-9.2.4-9.9 1.3-.6.7-1.3 6.2-1.4 12.3l-.3 10.9-10.6.3c-14.8.3-15.2.1-15.5-8.1l-.2-6.7h4.3c2.4 0 5-.3 5.9-.6 2.2-.8 2.2-8 0-8.8-2.9-1.1-16.9-.7-18.2.6-.8.8-1.2 4.9-1.2 11.9v10.7l-7.2.7c-4 .4-10 .5-13.3.3l-6-.4-.3-7.2-.3-7.2h4.9c5.4 0 7.2-1.2 7.2-5 0-4.4-1.6-5-13.2-5-6.5 0-10.8-.4-10.8-1 0-1 26.1-1.5 27.1-.6zm216.7 6.3l-.3 6.8-4.2.6c-5.5.7-7.5 2.5-7.1 6.3l.3 3.1 10 .3c12.6.4 12.5.4 12.5-13.5V125h25v7c0 5.2-.3 7-1.3 7-2.3 0-2.7-1.2-1.2-3.4 2-2.8 1.9-5.2-.5-7.6-1.7-1.7-3.3-2-9.8-2-11 0-11.1.2-11.4 13.5l-.3 11-12.1.2-12.1.2-.7-4.6c-1.2-9-1.1-9.3 3.5-9.3 5.6 0 7.9-1.4 7.9-5 0-1.9-.7-3.3-1.9-4-2.8-1.4-17.4-1.3-18.9.2-.7.7-1.2 4-1.2 8 0 3.9-.4 6.8-1 6.8s-1-3.7-1-9v-9h26.1l-.3 6.7zm326.5.3l.2 6.5-3.5.3c-6.3.5-7.8 1.1-8.4 3.7-.4 1.4-.2 3.4.4 4.6 1 1.8 1.9 1.9 10.8 1.7l9.7-.3-.4-11.8-.3-11.8 13.8.3 13.7.3.1 6.5.1 6.5-4.7.1c-6.1.1-8 1.7-7.6 6.3l.3 3.6 9.6.3c7.3.2 9.9-.1 10.8-1.1.6-.9 1.3-5.9 1.5-11.8l.4-10.4 13.1-.3 13.2-.3-.3 7.3-.3 7.2-4.6-.2c-5.4-.4-7.2 1.2-6.7 6l.3 3.3 8.9.3c5.5.2 9.3-.1 10-.8.7-.7 1.1-5.4 1.1-11.8v-10.7l13.8-.3 13.8-.3-.3 7.3-.3 7.3-4.1-.3c-4.7-.4-7.4 1.5-7.4 5.2 0 3.8 1.9 4.6 10.6 4.6 11 0 11.2-.2 11.1-13.2v-10.3l13.2-.3 13.2-.3-.3 7.2-.3 7.1-4.9.3c-5 .3-6.6 1.5-6.6 5 0 4.3 1.4 4.9 10.6 4.6 4.9-.1 9.2-.5 9.6-.7.4-.3.8-5.7.8-12V125h27v15.1l-4.3-.6c-6.4-1-9.4 2.5-6.7 7.6.9 1.6 2.2 1.9 9.5 1.9 11.3 0 11.5-.3 11.5-13.6V125h12.8c7.1 0 13.1.2 13.3.4.2.2.2 3.5-.1 7.3l-.5 6.8-4-.3c-5.4-.4-8.4 2.5-6.9 6.6.9 2.6 1.2 2.7 9.2 3 12.1.4 12.2.4 12.2-12.9v-11l13.3.3 13.2.3.1 5.5c.2 7.4-.2 8-4.7 8-4.9 0-8.3 3-7.3 6.3.4 1.2 1.2 2.6 1.8 3 1.4 1 18.2.5 19.2-.6.5-.4.7-5.7.5-11.8l-.2-11 13.2.3 13.3.3.3 4.5c.6 7.7 0 8.7-5.1 8.7s-7.6 1.5-7.6 4.8c0 5.2.5 5.5 11 5.5 7.3 0 10.1-.4 10.9-1.4.9-1.1 1-4.4.5-12-.6-9.2-.5-10.6.9-10.6 1.1 0 1.4 1.1 1.2 4.7-.1 2.7-.3 8.5-.3 13l-.2 8.1-6.2.6c-3.5.3-9 .2-12.3-.2l-6-.7-.3-6.8-.3-6.7h5.1c4.5 0 5.2-.3 6.1-2.6.7-2 .6-3.2-.6-5-1.4-2.2-2.2-2.4-10-2.4-11 0-11.5.6-11.5 14.8v10.3l-12.4-.2c-14.2-.1-13.6.3-13.6-9V137h4.8c5.5 0 7.2-1.2 7.2-5.1 0-3.8-1.5-4.5-10.1-5.2-11-.9-11.3-.6-11.9 13.5l-.5 11.3-11.9-.2c-8.5-.1-12.2-.6-12.7-1.5-.5-.7-.9-3.9-.9-7.1V137h4.4c5 0 7.6-1.9 7.6-5.4 0-3.8-1.9-4.6-11.2-4.6-10.7 0-10.8.1-10.8 13.9v9.9l-6.2.7c-3.5.3-9.2.4-12.8.3l-6.5-.4-.3-7.2-.3-7.2h4.5c6.8 0 9.7-4 5.9-8.2-1.3-1.5-3.1-1.8-9.8-1.8-5 0-8.6.5-9.3 1.2-.8.8-1.2 4.9-1.2 11.9v10.6l-13 .2c-7.1.1-13.1-.2-13.1-.6-.1-.4-.3-3.6-.4-7.1l-.2-6.2h4.8c7.1 0 10.1-3.9 6.2-8.2-1.3-1.5-3.1-1.8-9.8-1.8-5.6 0-8.6.4-9.3 1.3-.6.7-1.3 6.2-1.4 12.2l-.3 10.8-12 .2c-6.9.2-12.5-.2-13.2-.7-.8-.7-1.3-3.5-1.3-7.4V137h4.8c5.4 0 7.2-1.2 7.2-5 0-1.4-.5-3.1-1.2-3.8-1.7-1.7-17.2-1.6-18.6.1-.6.7-1.3 6.2-1.4 12.3l-.3 10.9h-12.7c-7-.1-12.9-.3-13.2-.5-.2-.3-.6-3.4-.8-7l-.3-6.5 5.4-.5c6.3-.6 8.1-2.4 6.5-6.7-.9-2.7-1.2-2.8-9.9-3.4-5-.3-9.4-.2-10 .3-.6.5-1 6.1-1 12.6v11.7l-9.5-.1c-5.3 0-11.2-.4-13.1-.8l-3.6-.6-.2-6.5-.1-6.5h5c5.5 0 7.4-1.8 6.8-6.8l-.3-2.7-10.1-.3c-8.4-.2-10.3 0-10.7 1.3-.4.8-.7 6-.8 11.5l-.1 10-3.7.7c-2 .3-7.9.7-13.1.7l-9.5.1-.3-7.3-.3-7.2h4.9c5.3 0 7.2-1.2 7.2-4.6 0-5-.7-5.4-9.9-5.4-4.7 0-9.3.4-10.1 1-1.1.7-1.4 3.1-1.1 11.9l.2 11.1h-9.6c-6.2 0-9.4-.4-9-1 .3-.6 3.7-1 7.5-1s7.1-.4 7.5-1c.3-.5.7-5.9.8-12l.2-11 13.3.2 13.4.3.1 6.5zm300.5 30.1c-.6 1.8-870 1.9-870.5.1-.4-.9 87.1-1.2 435.2-1.2 324 0 435.6.3 435.3 1.1zm.5 30.3c1 28.2.8 600.1-.2 599.1-.5-.6-1.7-2.6-2.8-4.5-1-1.9-2.6-4.6-3.4-6-.9-1.4-2.2-4.7-2.9-7.4-1.4-5-4.8-9.3-11.2-14.1-3.5-2.5-5-5.5-2.9-5.5.5 0 1.1-.9 1.4-2 .3-1.2 0-2-.7-2-1.5 0-5.6-5.4-5.6-7.3 0-.8-.7-2-1.5-2.7-.8-.7-1.5-1.8-1.5-2.5 0-.6-3.6-8.3-8-17s-7.7-16.1-7.5-16.3c.3-.3 1.3.2 2.3 1.1 2.2 2 5.9 2.2 6.5.4.9-2.7-5.3-13-13-21.5-4.6-5.1-5.1-6.2-2.8-6.2 1 0 1.5-1 1.5-3.4 0-1.8-.7-3.9-1.5-4.6-.8-.7-1.5-1.8-1.5-2.5s-3.2-4.2-7-7.9c-6.3-5.9-6.8-6.6-4.5-6.6 6.4 0 .7-10.3-10.3-18.3-8.5-6.2-8.3-6-4.2-5.5 2.7.2 3.5-.1 3.8-1.5.2-1.1-.4-2.6-1.5-3.6-4.4-4-11.1-9-14-10.5-4-2-11.3-2.1-13.9-.1-1 .8-2.5 1.5-3.3 1.5-.8 0-2.2.7-3.1 1.5-1.5 1.4-1.8 1.2-3.5-2.2-.9-2.1-2.4-5.1-3.1-6.6-.8-1.6-1.4-3.4-1.4-4.2 0-.7-.7-1.8-1.5-2.5s-1.5-2.3-1.5-3.5c0-1.2-.7-2.8-1.5-3.5-.8-.7-1.5-1.7-1.5-2.4 0-.9-2.3-6.2-7.6-17.1-.8-1.7-2.3-7.5-3.3-13s-2.3-10.9-2.8-12c-2.6-4.7-7.3-15.1-7.3-16 0-.6-1.2-2.8-2.7-5-2.6-3.8-6.2-12.6-6.3-15.2 0-.7-1.3-4.2-3-7.6-1.6-3.5-3-6.8-3-7.3 0-.6-.6-1.6-1.2-2.2-.7-.7-1.8-3.4-2.5-6-.6-2.6-1.9-7.6-2.9-11.1-1.5-5.5-1.5-7.1-.5-11.5 1.1-4.3 6-15.5 9.1-20.6.5-.8 3-5.1 5.5-9.5 2.6-4.4 5.1-8.7 5.6-9.5.5-.8 1.3-2.5 1.8-3.7.6-1.1 1.5-2.4 2-2.8.6-.3 1.1-1.5 1.1-2.6 0-1 .4-1.9.8-1.9 1.4 0 3.2 2.3 3.2 4.1 0 .9 1.2 3.8 2.6 6.5 5.1 9.8 11.5 18.1 20.9 27.2l9.5 9.3v6.5c0 6.1.9 11.2 4.7 25.4 1.4 5.7 9.8 23.5 12 25.8.7.7 1.3 1.9 1.3 2.6 0 .7 1.3 3.9 3 7.1 1.7 3.2 3 6.4 3 7.1 0 .6.7 1.7 1.5 2.4s1.5 2.3 1.5 3.7c0 1.3.7 2.6 1.5 2.9.8.4 1.5 1.6 1.5 2.9 0 1.2.7 2.8 1.5 3.5.8.7 1.5 2.2 1.5 3.3 0 1.1.8 2.9 1.8 4 1.6 1.8 1.6 2-1.4 4.6-1.7 1.4-5.8 6.8-9.2 11.9-5 7.5-6.2 10.1-6.2 13.3 0 6 2.3 6.2 7.2.5 3.1-3.6 4.7-4.6 7-4.6 2.5 0 2.9.3 2.3 1.7-.4 1-1 3.1-1.3 4.6-.2 1.6-2 4.4-3.9 6.3-2.8 2.8-3.2 3.8-2.3 4.9.8.9 2.2 1.3 3.9.9 2.5-.5 2.5-.5.7 1-1.1.9-1.6 2.1-1.2 3.2.5 1.3 1.5 1.5 4.6 1.1 3.8-.5 5.2.4 3 1.8-1.7 1.1-1.1 3.3 1.1 4 1.3.4 2.7.1 3.8-.9 2.2-2 4-2 4.7-.1 1 2.5 5.8 1.8 8.7-1.3 1.5-1.5 2.7-3.5 2.7-4.3 0-.7.7-2.3 1.5-3.3.8-1.1 1.5-3.1 1.5-4.5s.7-3.5 1.5-4.5c1.9-2.5 1.9-12.3 0-15.6-.8-1.4-1.5-3.9-1.5-5.5 0-1.7-.7-4.1-1.5-5.5-.8-1.4-1.4-3.9-1.5-5.5 0-1.7-.7-4.1-1.6-5.3-1.3-1.9-1.5-7.6-1.6-43 0-42.5.2-40.5-4.3-50.7-.7-1.7-2.7-5.9-4.4-9.5-1.7-3.6-3.1-7.3-3.1-8.2 0-.9-.4-1.9-.9-2.2-1.2-.8-5.1-8.8-5.1-10.5 0-.7-.6-2.5-1.4-3.9-.7-1.5-2.2-4.5-3.1-6.7-1-2.2-2.2-4.7-2.6-5.5-.5-.8-1.4-2.6-1.9-3.9-.6-1.3-2.6-5.6-4.5-9.6s-3.9-9.3-4.4-11.9c-.4-2.5-1.5-5.3-2.2-6.2-.8-1-1.7-5.3-2.1-9.8-.9-10.8-2.2-16.5-5.3-23.1-4.2-8.8-10.7-16.7-18.4-22.4-5.2-3.9-7.4-6.2-7.8-8.2-.3-1.6-1.2-3.4-1.9-4-.8-.6-1.4-2-1.4-3s-2.7-4.6-6-7.9c-3.4-3.4-7.5-8.8-9.2-12.1-1.7-3.3-5.6-8.4-8.5-11.3-3-3-5.4-6-5.3-6.7.4-3.1-1.5-5.7-7.6-10.3-3.6-2.7-7.1-6.1-7.9-7.6-.7-1.4-2.5-3.1-3.9-3.8-1.9-.8-2.6-1.9-2.6-4 0-3-1.6-5.2-3.7-5.2-.7 0-4.9-2.7-9.4-6-4.4-3.3-8.9-6-9.9-6-.9 0-2.3-.7-3-1.5-.8-.9-3-1.5-5.6-1.5-3.7 0-4.4-.3-4.4-1.9 0-1.1-.5-2.3-1-2.6-.6-.4-1.6-2.1-2.4-3.8-.7-1.8-2.5-4.7-4.1-6.5-3.4-4.1-13.9-12.2-15.7-12.2-.8 0-2.3-.7-3.4-1.5-1-.8-2.9-1.5-4.2-1.5-1.3 0-3.3-.5-4.4-1.1-1.2-.7-4.7-1.5-7.7-1.9-9.4-1.3-17.5-3.1-20.4-4.6-1.6-.8-3.4-1.4-4.1-1.4-1.1 0-8-6.3-13-11.9-2.9-3.1-4.6-2.7-4.6 1.3 0 4.8 3.3 12 7.4 16.1 3.7 3.6 16.3 10.1 21.9 11.2 1.7.3 4.4 1.2 5.9 1.9 1.5.8 3.6 1.4 4.7 1.4 1.9 0 4.7 1 13.6 5.1 5.2 2.4 10.2 6.8 12.6 11.3 2.3 4.3 2.4 6.6.4 6.6-.9 0-1.8.6-2.1 1.4-.7 1.8-3.4.9-3.4-1S639.4 225 637.5 225c-.8 0-1.5-.3-1.5-.8 0-.4-2.4-1.8-5.2-3.1-2.9-1.3-6.5-2.9-8-3.7-1.4-.8-3.5-1.4-4.5-1.4-1.1 0-2.8-.7-3.9-1.5-1-.8-2.6-1.5-3.5-1.5-.9 0-3.6-1.1-6-2.5-2.4-1.3-5.3-2.9-6.5-3.4-2.8-1.3-10.4-10.2-10.4-12.3 0-4.8-3.9-6.6-6-2.7-1.5 2.7.3 11.3 3.4 16.7 2.6 4.5 13.2 12.5 22.1 16.6 2.2 1.1 4.7 2.3 5.5 2.7.8.5 3.5 1.8 6 3.1 6 3 14.2 9.2 16 12 4.7 7.4 4.7 7.4-1 10.5-5.2 2.8-14.9 9.2-16.9 11.1-.9 1-3.5 3.2-5.8 5-4.8 3.8-10.3 11.4-10.3 14.2 0 1 .6 2.3 1.3 2.7.6.4 2 2.6 3.1 4.8 6.4 13.7 8.9 16.4 14.9 16.5 2.1 0 4.6-.4 5.5-.9.9-.4 4.5-1.1 7.9-1.5l6.1-.7.4 4.8c.3 2.6.8 5.6 1.2 6.5.7 1.6.2 1.8-5 1.8-3.3.1-9 .5-12.9 1.1-3.8.6-9.2 1.4-12 1.8-2.7.3-5.6 1-6.2 1.4-2.6 1.6-11.2 3.4-12.5 2.6-.7-.5-2.6-.9-4.3-.9-1.6 0-4.1-.7-5.5-1.5-1.4-.8-4.1-1.4-6-1.5-1.9 0-5.7-.7-8.4-1.5-5.8-1.8-23.9-2-33.5-.5-3.5.6-6.5.9-6.8.6-.2-.2.1-2.3.7-4.6.8-3.1.8-4.5 0-5.5s-.7-2.1.4-4.4c1.2-2.3 1.4-3.6.6-5.7-.6-1.5-.9-3.3-.6-4 .3-.8-.1-4.8-.9-9-2.2-11.2-1.8-34.3.6-43.7.5-2 .7-4.2.4-4.7-1-1.6 1.9-10.5 4.7-14.1 1.5-2 2.8-3.9 2.8-4.2 0-.3 1.4-2.7 3.2-5.3l3.1-4.7-1.8-3.4c-1.6-3-1.7-4-.7-7.8 1.1-4.3.5-8.6-1.5-9.8-.5-.3-4.4-.1-8.8.4-7.4.8-8.1 1.1-11.2 4.6-2.9 3.2-3.2 4.1-2.6 7.2.4 2 .7 5.2.7 7.1-.4 14.7-.7 17.9-1.9 20.5-.7 1.6-2.1 5.5-3 8.5-.9 3-2.3 6.9-3.1 8.7-.8 1.7-1.4 4-1.4 5s-.4 2.3-.9 2.9c-.4.5-1.8 4.3-3 8.4-1.2 4.1-2.6 8.4-3.1 9.5-.6 1.1-1.4 4-1.9 6.5s-1.4 6.1-2.1 8c-.7 1.9-1.7 4.8-2.2 6.5-.6 1.6-1.3 4.6-1.5 6.5-.3 1.9-.9 3.9-1.3 4.5-.4.5-1.1 3-1.5 5.5-.3 2.5-1.3 6.7-2 9.5-2.8 10.2-3.9 24.9-2.5 32.7 1.5 8.2 3.1 11.8 7.4 16.5 2.4 2.6 3.8 3.3 6.8 3.3 2.1 0 6.4.6 9.6 1.4 15.3 3.8 19.3 4.6 22 4.6 1.7 0 4.3.5 5.9 1.1 1.5.6 5.7 1.5 9.3 1.9 3.6.5 9 1.3 12 1.9 13.4 2.5 21.2 3.5 30.5 3.8 8.3.4 10.9.9 15.3 3.1 2.9 1.4 5.5 3 5.8 3.4.9 1.4 5.2.9 7-.9 1.5-1.6 1.7-1.6 3 .2.8 1 1.4 2.8 1.4 4 0 1.2.7 3 1.5 4.1.8 1 1.5 2.8 1.5 3.8 0 1.1.8 2.8 1.7 3.8 1.4 1.6 1.6 3.9 1.4 16.1-.7 33.6-.4 31.5-4.3 34.7-5.2 4.3-7.1 11.2-6.6 24.7.3 8.8.8 11.7 2.7 15.6l2.3 4.7-2.3 1.9c-1.5 1.2-4.7 2.1-8.9 2.5-8.6.8-17.4 3.8-21.6 7.6-1.9 1.6-4.7 3.2-6.2 3.5-1.5.3-4 1.2-5.7 2-1.6.7-3.8 1.6-4.7 1.9-1 .3-1.8 1.4-1.8 2.5 0 1.4-.9 2.2-2.7 2.6-1.6.4-4 1.3-5.5 2.1-1.4.8-3.5 1.4-4.6 1.4-1.1 0-2.5.6-3.1 1.4-.6.8-2.2 1.6-3.4 1.9-1.2.3-4.2 1.3-6.6 2.2-4 1.4-7.1 2.8-18.6 8-5 2.2-11.9 5.5-13.5 6.5-.8.5-3.5 1.8-6 3-2.5 1.1-5.2 2.5-6 3-.8.5-5.5 3.2-10.5 6.1-11.1 6.4-17.4 11-24.5 18-5.8 5.6-12 13.1-12 14.5 0 .4-.6 1.5-1.3 2.3-1.6 1.9-4.7 11.4-4.7 14.3 0 4.9 3.6 14.9 6.2 17.5 1.6 1.6 4 4.1 5.6 5.7 6.5 6.8 8 8.2 11.1 9.8 1.8 1 5.1 1.8 7.4 1.8 2.3 0 6.7.7 9.7 1.5 3 .8 7.1 1.5 9 1.5 1.9 0 4.6.7 6 1.5 1.4.8 3.3 1.4 4.3 1.5 1 0 4.2 1.8 7.2 4l5.5 4.1v8.7c-.1 6.1-.5 9.3-1.5 10.6-.8 1.1-1.5 2.8-1.5 3.7 0 1-.7 3-1.5 4.6-.7 1.5-2.4 4.9-3.5 7.5-1.2 2.6-3.1 6.2-4.4 8-1.2 1.8-3.2 5.4-4.4 7.9-1.3 2.6-3.3 5.8-4.6 7.2-1.3 1.4-2.6 3.1-2.9 3.8-1.3 2.8-3.2 5.4-4.4 6.2-.7.4-1.3 1.5-1.3 2.4 0 .8-1.3 3.2-3 5.3-1.6 2.1-3 4.2-3 4.7s-1.3 2.3-2.9 4c-3.8 4.2-4.5 7-2 8.4 1.8.9 1.1 1.9-8 11.2-5.5 5.6-11.1 11.6-12.3 13.3-2.6 3.5-12.6 13.6-14.9 15-.8.5-3 2.9-4.9 5.4-1.9 2.5-4 5.2-4.7 6-.8.8-1.9 2.2-2.6 3.1-1.2 1.7-10.7 3.2-12.4 2-1.3-.9-8.3-9.7-8.3-10.4 0-.3-1.3-2.1-3-3.9-1.6-1.8-3-3.8-3-4.4 0-.6-.7-1.7-1.5-2.4-1-.8-1.5-3-1.5-6.1 0-2.6-.4-5-.9-5.3-.5-.3-1.2-3.2-1.6-6.3-.4-3.2-1.3-8.3-2.1-11.3-.7-3-1.6-9.3-1.9-14-.2-4.7-.9-10.3-1.5-12.5-.5-2.2-1-6.5-1-9.5 0-3.2-.7-6.3-1.5-7.4-.8-1.1-1.5-3.8-1.5-6-.1-2.3-.5-6.1-1.1-8.6-.6-2.5-1.4-8.3-1.9-13-2.6-26.1-3-27.5-11.8-37.1-3.5-4-13.2-11.9-16.2-13.2-.8-.4-4.2-2.3-7.5-4.2-6-3.5-15.7-8.4-24.7-12.5-2.7-1.2-5-3-5.4-4.3-1-3-4.3-5.5-8.6-6.2-2.1-.4-3.8-1.1-3.8-1.5 0-2.6-3.4-4-10-4-3.8 0-7.2-.4-7.5-1-.3-.5-3.3-2.2-6.5-3.7-3.3-1.5-6-3.3-6-3.9 0-.7-.8-1-2-.7-1 .3-4-.2-6.6-1.1-2.6-.9-5.7-1.6-6.8-1.6-1.2 0-3-1.3-4.1-2.8-1.9-2.5-2-4-1.7-22.2.4-20.2-1.2-38.3-4.4-52-1-4.2-1.6-11-1.6-19 .1-14.2-.9-12.8 10.2-14.9 10.5-2.1 9.5-3 9.7 8.9.4 15.1.4 15 6.2 15 3.5 0 5.1-.4 5.5-1.6.3-.9.6-7.1.6-13.9 0-11.6.1-12.4 2-13 3.7-1.2 5 1.1 5 8.5 0 10.2 2.5 14.8 10.7 19.3 6.4 3.5 27.5 1.2 30.4-3.4 1-1.6 1.2-44.8.3-47.3-.4-1.1-1.9-1.6-4.9-1.6-3 0-4.5.5-4.9 1.6-.3.9-.6 10.3-.6 21 0 19.2 0 19.4-2.3 20.9-3.8 2.5-14.5-.4-16.7-4.6-.6-1-1-5.4-.8-9.7l.3-7.7h3.2c4.3 0 8-3.8 10.4-10.6 2.9-8.2 2.6-12.8-2.2-32.4-2.4-9.5-2.8-11.2-4.2-15.5-.9-2.5-2.3-7.2-3.2-10.5-2.6-9-4.5-14.8-5.4-16-.5-.5-1.1-2.4-1.4-4.2-.6-2.8-.2-3.4 2.8-5.3 1.9-1.2 3.5-2.8 3.5-3.6 0-.9.5-2.5 1.2-3.7.7-1.2 1.8-3.7 2.4-5.5 1-2.8.9-3.6-.6-5.5-1.6-2-2-2-4.4-.8-3.7 2-7.6.2-7.6-3.6 0-4.1-5-7.2-12-7.4-3-.1-5.8-.6-6.1-1.2-.4-.5-3-1.1-5.9-1.3-2.9-.2-5.9-.9-6.6-1.5-.8-.7-3.1-1.5-5.2-1.9-4.4-1-9.7-2.8-13.4-4.6-1.4-.8-3.3-1.4-4.2-1.4-.8 0-3-.6-4.8-1.4-1.8-.8-5.3-2.2-7.8-3.1-10.3-3.9-18.9-8.6-22.9-12.3-4.1-3.9-4.5-4-12.9-4.5-11-.6-24.8-2.5-28.7-3.9-1.6-.6-4.8-1.3-7-1.6-2.2-.2-4.9-1.1-6-1.8-1.1-.8-2.9-1.4-4.1-1.4-1.2 0-3.6-.8-5.2-1.7-2.5-1.4-3.3-1.5-4.6-.4-1.4 1.2-1.3 1.6.6 4.2 1.2 1.6 2.8 2.9 3.5 2.9.7 0 1.3.4 1.3.8 0 .8 9.5 8.2 10.6 8.2.3 0 2.3 1.3 4.4 3 2.1 1.6 4 3 4.3 3 .4 0 2.3 1.2 4.4 2.6 2.1 1.4 4.7 3 5.8 3.5 1.1.5 4 2.1 6.4 3.4 2.4 1.4 5 2.5 5.7 2.5.7 0 2.5.6 4.1 1.4 4.6 2.4 10 4.6 11.2 4.6.6 0 1.1.4 1.1.9s-3.3.8-7.2.8c-9.1-.1-21.9 2.8-27.8 6.4-.8.5-2.4 1.3-3.5 1.8-3 1.3-12.7 12.1-14.7 16.4-3.8 7.9-4.7 10.5-6.3 18.3-1.6 7.5-1.6 8.6-.1 17 1.7 8.7 3.5 15 6.1 20.9 3.9 9.1 4.5 10.9 4.5 13.9 0 1.9-.7 3.9-1.5 4.6-1.7 1.4-1.9 2.9-.7 4.8.7 1 1.5 1 4.4-.2 1.9-.8 4-2.2 4.7-3 1.4-1.6 3.9-1.5 9.4.6 3.3 1.3 3.4 1.8.3 4.7-2 1.9-3 2.2-7 1.6-3.7-.6-5.2-.3-8 1.4-1.8 1.2-4.1 3.3-5 4.6-.9 1.4-3.5 3.3-5.6 4.1-5 2-9 6.7-9 10.5 0 1.6-.5 2.9-1.2 2.9s-2.2 1.3-3.3 2.8c-2.8 3.8-2.6 11.5.3 14.2 2.9 2.7 3 10.2.2 14.8-1.6 2.5-2 5-2 11.1 0 5.8-.4 8.2-1.5 9.1-.8.7-1.5 2.5-1.5 4.1 0 2.6-.3 2.8-4.7 3.3-11.7 1.4-20.7 3.3-24.8 5.1-1.6.8-3.7 1.6-4.5 1.9-1.5.6-2.4 1.1-6.5 3.4-1.1.7-3 1.6-4.2 2.2-1.2.5-3.9 2.5-6 4.5-2.5 2.4-4.7 3.5-6.8 3.5-2.3 0-2.7.3-1.5 1 1.3.9 1.3 1.2-.2 2.1-1 .5-1.8 1.5-1.8 2.1 0 .6-1 2-2.3 3.2-3.2 3-11.7 14.3-11.7 15.5 0 .6-.5 1.1-1.1 1.1-.5 0-1.5 1.3-2 3-.6 1.6-1.5 3-1.9 3-.5 0-1.1 1.3-1.5 3-.4 1.6-1.1 3.2-1.6 3.5-.5.4-.9 2.4-.9 4.5s-.6 4.5-1.3 5.2c-3 3.1-6 30.5-3.8 34.6.6 1.1 1.4 5.3 1.7 9.3.4 4.1 1.3 8 2.1 8.7.7.7 1.3 2.3 1.3 3.4s.6 3.2 1.4 4.6c.8 1.5 2.4 4.8 3.7 7.4 1.3 2.7 2.7 4.8 3.1 4.8.5 0 .8.5.8 1 0 1.8 5 8.4 12.2 16.3 2.1 2.2 3.8 4.3 3.8 4.7 0 .4 1.8 2 4 3.5 4.2 2.9 5.1 4.5 2.5 4.5-.8 0-1.5.5-1.5 1 0 .7 1.3.9 3.3.5 2.4-.5 4.3-.1 6.8 1.4 1.9 1.2 4.6 2.6 6.2 3.2 1.5.6 2.7 1.5 2.7 2s1.5.9 3.3.9c1.8 0 4.2.7 5.4 1.5 1.1.8 3.9 1.7 6.2 2.1 2.3.4 4.4 1.1 4.7 1.5.3.5 4.7.9 9.7.9h9.2l-2.5 2c-1.4 1.1-3.1 2-3.7 2-.7 0-1.3.8-1.3 1.8s-1.2 2.9-2.6 4.3c-1.5 1.3-4.9 5.1-7.7 8.4-2.7 3.2-6.9 7.4-9.3 9.2-2.4 1.9-6 4.9-8.1 6.8-2.1 1.9-5.1 4-6.8 4.7-1.6.6-3.4 1.8-3.8 2.5-1.1 1.7-4.9 1.7-7.3-.2-1-.8-3-1.5-4.4-1.5-1.4 0-3.6-.7-5-1.5s-4-1.4-5.9-1.5c-2.8 0-4.3.9-8.3 5-3.9 4-5 5.9-5.5 9.5-.4 3.6-.2 5 1.2 6.5 1.8 2 1.7 2.1-1.5 5-1.9 1.7-3.7 3-4.2 3-.4 0-.8.9-.8 2 0 1-.7 2.3-1.4 2.7-1 .6-1.6 3-1.8 7.6-.2 3.7-.6 6.7-1 6.7H18.5l-.2-317-.2-317 435.3.1 435.3.1.6 16.2zM249.7 354.6c1.2.8 2.8 1.4 3.6 1.4.7 0 3 .9 5.1 1.9 2 1.1 5.1 2.4 6.7 3 2.5.9 2.9 1.4 2.3 3.5-.8 3.3 2.7 6.8 6.4 6.4 2.4-.3 2.7-.7 2.4-3.6-.4-4.1.9-4.1 2.7 0 .8 1.8 2.7 5.1 4.3 7.5 3.2 4.6 4.6 12.2 5.5 28.9.3 6.5.1 9.9-.8 11.5-.8 1.5-1.3 6.3-1.4 12.8l-.1 10.4-12-.2c-8.9-.2-13.1.2-16.7 1.4-4.6 1.5-7.3 1.3-6.2-.5 1.3-2.1-1.6-5-5-5s-5.9 2.4-5.3 5.2c.4 1.9-3.2 2.2-5.2.3-1.3-1.2-4-1.6-10.9-1.7-8.9-.2-11.5-1-6.7-2.2 3.5-.9 3.9-3.4 2.2-12.8-.9-4.6-1.8-11.3-2.1-15-.6-6.2-.9-6.9-4.3-9.4-2-1.5-4.1-3.4-4.5-4.1-.4-.7-1.4-1.3-2.2-1.3-4.2 0-5.2-6.4-2-13.5 4.7-10.3 5.7-12.3 7.7-14.6 3.5-4 10.4-8.9 12.5-8.9 1 0 2.7-.6 3.8-1.4 1.1-.7 2.9-1.6 4-1.9 3.2-.9 13.8.4 16.2 1.9zM298 373c0 1.1-.4 2-1 2-.5 0-1-.9-1-2s.5-2 1-2c.6 0 1 .9 1 2zM168.8 528.8c.2 1.2.8 2.2 1.3 2.2s1.4 1 1.9 2.2c.6 1.3 1.9 3.6 3 5.3 1.1 1.6 2.4 3.9 3 5 .6 1.1 1.9 3.3 3 5 2.4 3.7 4.2 7.6 3.7 8.2-.2.2-2.6-1.2-5.3-3.2-2.7-1.9-5.9-3.9-7.1-4.4-1.1-.6-2.4-1.5-2.8-2-.3-.6-1.9-1.1-3.4-1.1-4.6 0-5.6-2.2-3.6-7.7.9-2.7 1.9-5.9 2.2-7.3.9-4.4 1.3-5.2 2.6-4.8.6.3 1.3 1.4 1.5 2.6zm-35.4 20.8c3.7 1.4 1 2.4-6.6 2.4-5 .1-9.9.7-12.3 1.6-2.2.9-6.2 2-9 2.5-5.7 1-16 5.8-19.7 9.1-1.3 1.3-4.5 3.9-6.9 6-2.4 2-5.7 5.5-7.4 7.8-1.6 2.3-4.3 5.6-5.8 7.3-1.5 1.8-4.7 7-7 11.6-3.8 7.5-4 8.5-2.5 9.4 1.5 1 1.4 1.2-.5 2.2-3.2 1.5-3.9 6.2-4 25.1 0 15.7.1 17.5 2.1 21.3 1.2 2.3 2.2 4.7 2.2 5.4.1 1.3 4.5 10.4 7.5 15.4 1.3 2.2 2.8 3.3 4.3 3.3 1.9 0 2.2.4 1.7 2.1-.5 1.6.4 3.1 4.2 6.7 8 7.6 10 9.2 11.6 9.2.8 0 2.8 1.2 4.5 2.7 3 2.8 15.2 8.3 18.3 8.3.9 0 3.4.7 5.5 1.6 5.8 2.4 22.8 2.3 32.9-.4 9.7-2.5 13.1-3.7 14-5.1.3-.6 1.4-1.1 2.4-1.1 5.2 0 27.5-19 31.1-26.5 1.1-2.2 2.9-5.4 4-7 4.3-6.6 6.6-12.8 9.5-25.5 1.3-5.4 1.4-8.8.5-20.4-1-11.7-1.6-14.8-4-20-1.5-3.3-3.1-7.1-3.5-8.4-.3-1.2-1.1-2.2-1.6-2.2s-.9-.8-.9-1.8c0-3.5-12.1-19.2-14.8-19.2-.6 0-1.7-.9-2.4-1.9-2.8-4-18.1-13.6-19.9-12.6-.5.4-2.1-.3-3.5-1.4-1.5-1.2-3.6-2.1-4.8-2.1-1.1-.1-3.2-.7-4.6-1.5-1.4-.8-4.2-1.4-6.2-1.5-2 0-4-.4-4.3-1-.4-.6 2-.7 6.2-.4 9.9.8 20.9 4.8 28 10 1.7 1.3 3.5 2.4 3.9 2.4 4 0 21.3 19.9 26.5 30.4 7.3 15 10.6 36.5 7.6 49.6-.9 3.6-1.8 7.9-2.1 9.6-1.2 7.1-9.7 24.2-14.9 30.1-15.7 17.4-28.2 25.1-48.3 29.8-8.2 1.9-25.2 1.7-34.9-.4-15.6-3.4-30.9-12.8-41.8-25.5-9.9-11.7-12.9-18.3-17.8-39.1-3.9-16.7-1.2-36.2 7.3-52.9 3.9-7.9 13.7-20.6 19-24.8 7.4-5.9 20.5-13.5 28.3-16.5 8.2-3.2 24.8-5.3 28.9-3.7zm2.2 14.1c.4 2.6 1.5 6.1 2.6 7.8l1.8 3.2-5.2-.4c-7.9-.7-8-.7-6.4-4.5.8-1.8 1.9-3.4 2.5-3.6.6-.2 1.1-1.6 1.1-3.1 0-2.8.7-4.1 2.1-4.1.4 0 1.1 2.1 1.5 4.7zm-21.8 1.6c1.2 2.4 3.3 5.3 4.6 6.6 3.1 2.9 2.5 4.1-1.8 4.1-1.8 0-4.1.7-5.2 1.5-1 .8-2.9 1.5-4.1 1.5-2.3 0-2.3 0-.3-2 1.5-1.5 2-3.3 2-7.4 0-5.6.7-8.6 1.9-8.6.4 0 1.7 1.9 2.9 4.3zm43.3 6.2c-.2 6.8 0 7.8 2.1 9.5 1.3 1.1 2 1.9 1.6 2-.9 0-10.1-4.9-11.2-6.1-.6-.5-2.8-1-5-1.1l-4.1-.1 3.7-.4c3.2-.4 4.3-1.2 8-6.3 2.4-3.2 4.5-5.6 4.7-5.4.2.2.3 3.8.2 7.9zM93.5 575c.4 0 2 1.1 3.7 2.5 1.6 1.4 3.6 2.5 4.4 2.5 2.5 0 1.4 1.4-3.8 4.7-6 3.9-6.6 4-6.7 1-.2-5.2-1.4-11.3-2.7-13.2-2.5-3.5-1.5-4 1.5-.7 1.7 1.7 3.3 3.2 3.6 3.2zm84.5 2.4c0 .7-.7 1.9-1.5 2.6-.8.7-1.5 1.8-1.5 2.5 0 .6-.7 2.6-1.6 4.3-1.1 2.4-1.3 3.6-.4 5.2 1.8 3.3-.2 2.3-4.8-2.5-2.4-2.5-4.8-4.5-5.3-4.5s-.9-.5-.9-1c0-.6.8-1 1.8-1 2.2 0 6.7-2.2 10.2-5 3-2.3 4-2.5 4-.6zm-46.7 4.3c-1.3.2-3.5.2-5 0-1.6-.2-.5-.4 2.2-.4 2.8 0 4 .2 2.8.4zm-57 6.5c3.5 1.9 9 3.8 11.5 3.8 3 0 2.8.8-1.8 5.8-3.5 3.9-6 4.8-6 2.1 0-.6-2.1-3.7-4.6-7-4.6-5.9-4.3-7.6.9-4.7zm534.2 8.8c1.9 2.1 4.5 2.6 6.1 1.1.8-.9 6.5 2.9 16.8 11.2 3.5 3 7.9 5.7 11.6 7.2.8.4 2.5 1.2 3.7 1.8 2.3 1 7.5-.1 13.3-2.9 11.9-5.7 18-9 20.7-11 1.7-1.3 3.6-2.4 4.2-2.4.5 0 3.1 4.2 5.6 9.2 2.5 5.1 5.5 10.6 6.6 12.3 1 1.6 2.3 3.9 2.9 5 5.7 11.4 23.5 32 35.5 41.3 3.3 2.6 7.2 5.8 8.7 7.1 2.6 2.3 4.7 3.6 9.3 6.1 1.1.6 3.4 1.9 5 3 1.7 1.1 3.7 2.2 4.5 2.6.8.3 2.5 1 3.6 1.6 1.8.8 2.9.5 6-1.6 2.1-1.4 4.6-2.6 5.5-2.6.9 0 2.2-.7 2.9-1.5.7-.8 2.9-1.5 5-1.5 2.9 0 4.1.6 5.4 2.5.9 1.3 1.6 3.1 1.6 3.8 0 .8.7 2 1.5 2.7.8.7 1.5 2.2 1.5 3.4 0 1.2.7 3.1 1.5 4.2.8 1 1.4 2.8 1.5 3.9 0 1.1.6 4 1.4 6.5.8 2.5 2.2 7.2 3.1 10.5.9 3.3 2.3 8 3.1 10.5.8 2.5 1.4 5.6 1.4 7 .1 1.4.7 3.6 1.5 5s1.5 4.1 1.5 6c.1 1.9 1 5.7 1.9 8.5 1.8 4.8 2 5 5.4 4.8 5-.3 5.3 1.8 1.5 9-2.9 5.4-3.3 7-3.3 14.1 0 4.5-.6 9-1.2 10.1-.6 1.1-1.4 4.8-1.8 8.2l-.7 6.3H541.2l-.6-2.3c-.3-1.2-.6-3.2-.6-4.5 0-1.2-.4-2.2-1-2.2-.5 0-1.2-1.7-1.6-3.7-.4-2.1-1.3-4.4-2.1-5.1-1.6-1.7-1.7-4.2-.1-4.2.6 0 2 .8 3 1.7 1.6 1.5 2 1.5 3.3.2 1.3-1.3 1.1-2.2-1.5-7.2-3.5-6.8-3.8-10.5-1-13.7 1.1-1.3 2-2.6 2-3 0-.4 1.1-1.2 2.5-1.8 3.2-1.5 3.2-3.6 0-6.8l-2.6-2.6 2.5-1.9c1.3-1 2.6-3.3 2.9-5.1.2-1.8.9-4.7 1.5-6.3.6-1.7 1.4-4.3 1.7-5.8.3-1.5 1-2.5 1.5-2.2 3.2 2 8.2-5.3 14.1-20.5 1.5-3.9 1.8-12.7.6-18.2-.7-3.3-.6-3.7 1.5-4 2.2-.3 2.3-.6 2.6-13.2.2-10.4 0-13.3-1.3-15.3-1.7-2.6-1.2-4.5.9-3.7 3.1 1.2 2.9-3.5-.4-12.3-.7-1.6-.4-2.4 1.1-3.5 1.8-1.2 1.9-1.8 1-5.8-.6-2.5-1.3-5.7-1.6-7.1-.6-3.4-5-7.7-8.9-8.7l-3.1-.8 4-1.8c2.2-1 5.8-2.7 8-3.7 3.8-1.9 5.3-2.6 9.3-4.9.9-.5 4-2.1 6.7-3.5 2.8-1.4 5.9-3.1 6.9-3.8 1.1-.7 4.2-2.7 7-4.5 5.9-3.8 6.7-3.9 9.1-1.2zm-420.1 2.8c-2.3 2-4.4 4.5-4.7 5.4-.9 2.7-2.6 2.2-3.3-1-.4-1.5-1.1-3.3-1.7-4-.5-.7-.7-1.5-.3-1.9.3-.3.6-.1.6.5 0 .7.9 1.2 2 1.2s2 .6 2 1.2c0 .9.3.8 1-.2.6-.9.5-1.7-.3-2.2-1.8-1.2 1.2-2.8 5.3-2.8l3.5.1-4.1 3.7zM76.5 611.2c-.4 1.8-1.3 5.3-2.1 7.7-.9 2.5-1.5 8.6-1.5 14.5-.1 6.6-.4 9.3-1 7.9-.9-2.5-6.7-5.3-10.9-5.3-2.8 0-5.5-2.1-4.3-3.3.3-.4 1.3-.7 2.2-.7.9 0 2.9-.7 4.5-1.5 1.5-.8 3.7-1.5 4.7-1.5s2.3-.9 2.9-1.9c1.5-2.9 1.2-8.1-.5-8.7-.8-.4-1.5-1.2-1.5-2s-.5-1.4-1.1-1.4c-.6 0-2.7-1.2-4.7-2.8l-3.6-2.7 6.5-.6c12.2-1.1 11.1-1.3 10.4 2.3zm109.7 4.9c.7.5 4 .9 7.4.9 3.3 0 6.4.3 6.7.7 1 1-1.3 3.3-3.3 3.3-1 0-2.3.7-3 1.5-.7.8-2.1 1.5-3.1 1.5-3.4 0-5.2 6.8-2.8 11.1.5 1.1 2 2.4 3.2 2.9 1.2.6 2.9 1.4 3.7 1.9.8.5 2.4 1.3 3.5 1.6 2 .7 2 .7 0 1.5-1.1.4-4.4 1-7.2 1.3l-5.3.6v-13.3c0-10.1-.3-13.7-1.5-15.2-.8-1-1.4-3-1.4-4.4.1-2.4.1-2.4.9.4.5 1.6 1.5 3.3 2.2 3.7zM75.6 650c.3 1.4 1.1 3.8 1.9 5.3 2.1 4 1.9 5.3-.5 3.2-1.7-1.5-3-1.7-9.5-1.1-4.1.4-7.5.4-7.5 0 0-1.2 3.2-4.4 4.4-4.4 1.9 0 7.6-5.8 7.6-7.7.1-1.7.2-1.6 1.6.2.8 1.1 1.7 3.1 2 4.5zm112 10.7c1.9 1.8 3.9 3.3 4.4 3.3.6 0 1 .5 1 1.1 0 1.6-9 .5-10.1-1.2-1.6-2.7-9.8 3.5-9.9 7.5 0 2.7 2.2 8.8 3.9 10.6 1.3 1.3 1.2 1.5-.3 1.8-1 .2-2.5-.3-3.5-1.2-1-.9-2.4-1.6-3.2-1.6-.8 0-1.9-.4-2.4-.9-.6-.5-2.1-1.1-3.4-1.3-2.4-.3-2.4-.4 1-2.7 4-2.7 13.7-14.7 15.7-19.4 1.2-3 1.4-3.1 2.4-1.2.6 1.1 2.6 3.5 4.4 5.2zM82 663.3c0 .7 2 3.5 4.5 6.4 4.4 5 6 7.8 3 5.3-1.7-1.4-5.7-.7-12.2 2.2-4.8 2.1-6.5 1.7-4.5-1 .7-.9 1.6-2.7 2.2-4 .5-1.2 1.3-2.2 1.8-2.2s1.5-1.8 2.2-4c1.3-3.8 3-5.4 3-2.7zm217.7 12.3c10.4 4.6 16.2 7 21.3 8.9 2.5 1 5.9 2.3 7.5 3 1.7.7 5.6 1.6 8.8 2l5.7.6v11.4c0 7.6.5 12.3 1.4 14.2.7 1.5 2.6 5.4 4.2 8.6 1.6 3.3 3.5 6.4 4.4 7 1.8 1.4 11 15.1 11 16.5 0 .5.9 1.9 2 3.2 1.1 1.3 2 2.8 2 3.4 0 .6 1.8 4.6 4 8.9 2.2 4.2 4 8.3 4 9.1 0 .7.6 1.9 1.4 2.5.8.6 1.6 2.4 1.9 3.9.2 1.5 1 4.1 1.8 5.8 1.1 2.9 1 3.5-1.8 7.6-4.1 6.1-5.4 10.3-4.3 13.4.6 1.4 1 2.9 1 3.5 0 .5-61.5.9-156.5.9C66.9 810 63 810 63 808.1c0-1 .7-2.4 1.5-3.1.8-.7 1.5-2 1.5-2.9 0-.9.8-2.4 1.7-3.2 1-.9 2.3-2.4 2.8-3.3.9-1.5 4.1-2.7 11.5-4.3 2.5-.5 5.9-1.7 19.2-6.8 3.6-1.4 7.5-2.5 8.6-2.5 1.1 0 2.5-.6 3.1-1.4.6-.8 2.6-1.6 4.4-1.9 5.6-1 12.7-3.1 12.7-3.8 0-.4 1.4-1 3.1-1.4 1.7-.4 4.2-1.3 5.7-2.1s3.4-1.4 4.3-1.4c.9 0 2.2-.7 2.9-1.5.7-.8 1.7-1.5 2.2-1.5.5 0 3.9-1.4 7.5-3 3.7-1.7 8.1-3 10.4-3 2.1 0 3.9-.4 3.9-1 0-1 8-5 10-5 4.3 0 19-15.6 19-20.1 0-1 .5-2.1 1-2.4.6-.3 1-3.9 1-8 0-5.5.4-7.4 1.5-7.9.8-.3 1.5-1 1.5-1.5 0-.6 1.2-2.9 2.8-5.3 4.5-7.1 5.1-8.2 6.6-11.6 1.7-3.7 1.8-3.7 5.2-1.5 2.4 1.5 2.8 1.5 5.7 0 1.8-.9 5.9-1.8 9.2-2.1 3.3-.3 6.1-.9 6.3-1.5.2-.6 2.1-1.1 4.1-1.1 2.7 0 4.4-.7 6-2.4 1.7-1.8 3.7-2.5 8.9-3.1 3.7-.4 7.2-1 7.7-1.5.6-.4 4.2-1.3 8-2 8.7-1.5 12.2-2.8 12.9-4.6.3-.8 1.6-1.4 2.9-1.4 1.4 0 3-.7 3.7-1.5 1.5-1.8 1.1-1.8 5.7.1zM98.2 680c2.2 1.6 4.7 3 5.5 3 .7 0 1.3.4 1.3 1 0 .5-.8 1-1.7 1-1 0-4.3 2.3-7.3 5-3 2.8-5.8 5-6.2 5-1 0 .3-7.1 1.9-10.4.8-1.5 1.2-3.9.9-5.2-.8-3.2.5-3 5.6.6zm58.5 5.2c-.3 1.1-.2 4.4.4 7.1 1 5.4.4 7.4-1.3 4.3-.6-1-1.9-2.7-2.9-3.7-1.1-1.1-1.9-2.3-1.9-2.8s-1-1.6-2.2-2.4l-2.3-1.6h2.2c1.2-.1 2.6.7 3.2 1.6.8 1.4 1.2 1.5 2.2.6.9-.9.9-1.6.1-2.6-1.3-1.5-.6-2.7 1.6-2.7 1 0 1.3.7.9 2.2zm-45.1 2.3c1 .8 3.6 1.5 5.7 1.5h3.8l-2.3 3.2c-1.3 1.8-2.5 3.5-2.8 3.8-.3.3-1.4 2.3-2.5 4.4l-2 4-.3-7.9c-.2-6-.7-8.2-2-9.1-.9-.8-1.2-1.4-.6-1.4.5 0 1.9.7 3 1.5zm26.8 4.2c-.3 1-1 2.7-1.5 3.8-.4 1.1-1 3.8-1.2 6l-.3 4-1.7-4c-1-2.2-2.1-4.7-2.6-5.5-.7-1.3-.3-1.5 2.5-1.2 2.6.3 3.4 0 3.4-1.1 0-.9-.8-2.1-1.7-2.6-1.5-.9-1.4-1 .9-1.1 2.2 0 2.6.4 2.2 1.7zm109.9 175.6c1 2.1 1.7 4.6 1.7 5.5 0 1 .7 2.7 1.5 3.8.8 1 1.5 3.1 1.5 4.5 0 1.5.6 4.4 1.4 6.5.7 2.2 1.6 7.5 2 11.8.4 4.4 1.1 8.7 1.7 9.7.5 1 .5 2 .1 2.3-.5.3-7.3.6-15.3.7l-14.4.1-.3-2.8c-.2-1.6.4-6.5 1.3-10.9s1.9-9.1 2.2-10.5c.4-2.4.5-2.4 1.9-.6 1.8 2.5 3.2 1.2 1.6-1.4-1.6-2.7-1.5-10.1.3-12.4.8-1.1 1.5-2.9 1.5-4.1 0-1.2.7-3 1.5-4.1.8-1 1.5-2.5 1.5-3.2 0-.7.7-2.4 1.6-3.7l1.6-2.5 1.8 3.7c.9 2.1 2.4 5.5 3.3 7.6zm105.3-5.3c.8.7 1.4 2.5 1.4 4.1 0 1.6.4 2.9.9 2.9 1 0 3.8 7.5 5.1 13.8.6 2.4 1.2 4.8 1.6 5.3.4.8 3.4 20.5 3.4 23.1 0 .5-6.7.8-15 .8-14.2 0-15-.1-15-1.9 0-1.1.5-3.2 1.2-4.8.6-1.5 1.3-6 1.4-10 .2-3.9 1-8.8 1.9-10.9.8-2 1.5-4.9 1.5-6.4s.7-3.3 1.5-4c.8-.7 1.5-2 1.5-2.9 0-.9.5-2.3 1-3.1.8-1.3 1.1-1.2 2.4.5 1.3 1.8 1.6 1.8 3 .5 1.1-1.1 1.3-2.3.8-4.5-.7-2.3-1-2.6-1.5-1.2-.3.9-1.1 1.7-1.7 1.7-1.2 0-.7-2.1 1.3-7l1.1-2.5.4 2.7c.2 1.4 1 3.2 1.8 3.8zm109.4 2.5c4.5 10.3 5.3 12.8 5.8 19 .2 3.3.9 6.3 1.4 6.6.6.4 1.2 4.6 1.5 9.5.3 4.9 1 9.4 1.5 10 1.5 1.9-1.6 2.4-15.8 2.4H444l.6-4.3c.4-2.3 1.1-5 1.5-5.9.5-.9.9-3.6.9-6s.3-5.3.6-6.6c.7-2.5 2.4-3 2.4-.7 0 .8.5 1.5 1.1 1.5.6 0 .7-.8.2-2.3-1.5-4-.7-12.1 1.6-17.7 1.2-3 2.5-6.4 2.8-7.5 1.1-3.5 3.7-6.9 4.1-5.4.3.8 1.7 4.1 3.2 7.4zm37.5 3c.7 1.6 2 5.5 2.8 8.5.9 3 2.3 8 3.1 11.1.9 3.1 1.6 8 1.6 11 .1 3 .7 7.2 1.5 9.4.8 2.1 1.2 4.1 1 4.3-.5.5-29.8.2-30.3-.3-.2-.2.3-2.8 1.2-5.8.9-3 1.6-8 1.6-11 0-3.1.5-6.8 1.1-8.4.6-1.5 1.4-4.6 1.9-6.8 1-4.9 2.5-9.1 6.3-17.5l3-6.5 1.9 4.5c1.1 2.5 2.6 5.8 3.3 7.5zm35.5-.5c.7 1.9 1.5 4.8 1.8 6.5.3 1.6 1.1 3.5 1.8 4.3.8.7 1.4 3.1 1.4 5.1 0 2.1.7 5.5 1.5 7.4.9 2.2 1.5 6.7 1.5 11.1 0 4.1.5 7.8 1 8.1 3.1 1.9-.3 2.5-14 2.5-16.8 0-16 .5-13.5-7.6.8-2.7 1.5-7 1.5-9.5s.7-5.4 1.5-6.5c.8-1 1.5-3.5 1.5-5.4 0-1.9.7-4.8 1.5-6.4.8-1.5 1.5-3.8 1.5-5 0-1.2.7-3.1 1.5-4.2.8-1 1.5-2.7 1.5-3.7s.7-3.2 1.6-5l1.7-3.2 1.7 4c1 2.2 2.3 5.6 3 7.5zm36.5.5c2.4 5.7 3.7 10 4.2 13 .2 1.6 1 5.2 1.8 8 .8 2.7 1.9 7.9 2.5 11.5.7 3.6 1.4 7.7 1.7 9.3l.5 2.7-15.6-.1c-8.6 0-15.6-.4-15.6-.8s.7-3 1.5-5.7 1.5-6.9 1.5-9.4c.1-2.5.7-6.3 1.5-8.5s1.5-5.1 1.5-6.5c0-1.4.7-3.8 1.5-5.4.8-1.5 1.5-3.6 1.5-4.6 0-1 .7-2.3 1.5-3 .8-.7 1.5-2.3 1.5-3.7 0-1.3.7-3.8 1.6-5.6l1.7-3.2 2 4.5c1.1 2.5 2.6 5.8 3.2 7.5zm73.6 4c.4 1.6 1.2 4.3 1.8 6 1.6 4.9 3.8 14.5 5 22 .6 3.8 1.4 8.2 1.7 9.7l.6 2.8H624v-2.9c0-1.5.4-4.1 1-5.7.5-1.6 1.4-6.1 1.9-9.9 1.1-8.3 2.8-15 4.7-18.7.8-1.4 1.4-3.4 1.4-4.3 0-.9.6-2.9 1.4-4.3.7-1.5 2.1-4.5 3.1-6.7l1.8-4 3 6.5c1.6 3.6 3.3 7.8 3.8 9.5zm35.6 2.2c-.3 3-.1 4.3.8 4.3 1.4 0 2.5 3 2.5 6.8 0 1.3.7 3 1.5 3.8.8.9 1.5 3.1 1.5 5s.7 6.7 1.6 10.5c.9 3.9 1.4 7.2 1.2 7.4-.2.2-7.1.5-15.3.6l-15 .2-.3-2.3c-.2-1.3.3-5.1 1.2-8.4.8-3.4 2.2-9.7 3.1-14.1 1.7-8.3 4.8-19.2 6.3-22.3.5-.9 1.7-3.4 2.8-5.5l1.8-3.9 3.4 6.9c2.6 5.3 3.2 7.7 2.9 11zm33.5-10.2c.4 1.1 1.8 5.1 3.2 9 1.4 3.8 2.6 8 2.6 9.3 0 1.3.5 3.3 1.2 4.5.6 1.2 1.7 5.8 2.4 10.2.7 4.4 1.6 9.7 2 11.8l.7 3.7h-15.7c-17.6 0-16.9.4-14.5-8.3.6-2.1 1.4-6.9 1.9-10.5 1-7.9 2.7-14.7 4.6-18.4.8-1.4 1.4-3.2 1.4-4 0-.7 1.4-4.3 3.2-8l3.2-6.7 1.6 2.7c.9 1.5 1.9 3.6 2.2 4.7zM29.6 863c.8.7 1.4 2 1.4 3s.7 2.3 1.5 3c.8.7 1.5 2.7 1.5 4.5 0 1.8.7 4.9 1.5 6.8.8 2 1.5 4.9 1.5 6.5 0 1.6.6 4.2 1.4 5.8.8 1.6 1.6 6.6 1.8 11.1l.5 8.3H18v-17.3c0-13.7.3-17.7 1.5-19.3.8-1 1.5-2.9 1.5-4 0-1.2 1.5-5.1 3.2-8.5 2.9-5.7 3.3-6.1 3.6-3.7.2 1.4 1 3.2 1.8 3.8zm33 .2l-1.6 2.2v-3c0-1.6.6-3.6 1.3-4.3 1.9-1.9 2.2 2.4.3 5.1zm38.7-2.3c.9 2 1.7 4.6 1.7 5.7 0 1 .7 2.8 1.5 3.8.8 1.1 1.5 3.4 1.5 5.2 0 1.8.5 3.4 1.1 3.6.6.2 1.3 2.6 1.6 5.3.3 2.8 1 5.6 1.6 6.3 1.1 1.4 3.7 19.2 3 20.4-.2.5-6.9.8-14.9.8H84v-5.4c0-2.9.7-7.3 1.5-9.6s1.5-5.4 1.5-6.8c0-3.7 3.6-15.6 7.5-24.7.7-1.7 1.7-4.2 2.3-5.8 1.5-3.6 2.4-3.4 4.5 1.2zm34.7-2.5c0 .7.7 1.9 1.5 2.6.8.7 1.5 2 1.5 2.9 0 .9.7 2.9 1.5 4.5.8 1.5 1.5 3.5 1.5 4.3 0 .9.7 3.8 1.6 6.7 3.6 11.4 4.3 14.4 4.9 21.1.4 3.8.9 8 1.2 9.3l.5 2.2H120v-3.6c0-3.3 1.4-11 4.2-22.4.6-2.5 1.4-6.1 1.8-8 .5-1.9 1.4-5.1 2.1-7 .6-1.9 1.4-4 1.5-4.5.2-.6.8-1.7 1.3-2.5s1.4-2.7 2.2-4.3c1.3-2.9 2.9-3.6 2.9-1.3zm35.4 3.3c-.6 4.5-.5 4.7.9 2.8 1.6-2 1.6-1.9 1.7.6 0 1.4.9 3.6 2 4.9 1.1 1.3 2 3.7 2 5.6 0 1.8.5 3.4 1.2 3.6 1.5.5 3.7 9.1 4.8 18.8.5 4.1 1.2 9 1.5 10.7l.6 3.3-13.6.1c-7.4.1-14.1.2-14.7.3-2.5.2-.9-17.6 2.4-26.9.6-1.7 1.3-4.6 1.6-6.5.2-1.9 1.1-4.4 1.8-5.5.8-1.1 1.4-2.7 1.4-3.7 0-.9.6-2.3 1.3-3 .7-.7 1.8-3.2 2.5-5.6 1.7-5.7 3.3-5.4 2.6.5zm109.9-.4c.9 2.3 1.7 5 1.7 5.9 0 .9.4 1.9.9 2.2.5.3 1.2 1.8 1.5 3.3.4 1.6 1.3 4.1 2 5.8 1.9 4.2 3.5 10.8 4.7 19.5.5 4.1 1.4 8.7 1.9 10.2s.5 3 .1 3.2c-.4.3-7.2.6-15.2.7l-14.4.1.1-5.4c.1-7.2 2.3-17.7 7.1-33.3 2.1-7.2 6.2-16.5 7.2-16.5.3 0 1.4 1.9 2.4 4.3zm35.8-1.1c3.2 6.5 4.9 10.9 4.9 12.4 0 1.8 2.6 10.2 4.6 15.2.8 1.8 1.4 5.4 1.4 8 0 2.6.7 7.1 1.4 9.9.8 2.9 1.1 5.5.7 5.7-.4.3-7.2.6-15.1.7l-14.5.2-.3-4.2c-.2-2.4.4-6.4 1.2-8.9.9-2.5 1.6-6.2 1.6-8.2 0-2 .7-4.5 1.5-5.6.8-1 1.5-3.1 1.5-4.5s.7-3.4 1.5-4.5c.8-1 1.5-3.3 1.5-5.1 0-1.7.6-4.4 1.4-6 .8-1.5 2-4 2.7-5.6 1.6-3.5 2.1-3.4 4 .5zm71.3-1.5c.3 1 .9 2.5 1.4 3.3 2.7 4.7 4.2 8.4 4.2 10.4 0 1.2.7 3.1 1.5 4.2.8 1 1.5 3.7 1.5 5.9s.7 5.1 1.5 6.5c.8 1.4 1.5 4.3 1.5 6.5s.7 6.7 1.4 10c.8 3.3 1.4 6.1 1.2 6.2-.1.1-6.9.3-15.1.4l-15 .1-.3-5c-.2-3.2.2-5.4 1.1-6.3.8-.8 1.6-4.3 2-7.9.3-3.5 1-6.6 1.6-6.8.6-.2 1.1-1.8 1.1-3.7 0-3.1 2.3-11.5 5-18 3.3-8 4.2-9 5.4-5.8zm38.6 5.4c0 .6.6 2 1.2 3.2 1.4 2.4 3.4 9 4.8 15.2.5 2.2 1.3 5.8 1.9 8 .6 2.2 1.1 7.2 1.1 11.1 0 4 .5 7.5 1.2 8.2.6.6 1 1.4.7 1.6-.3.3-7 .6-14.9.6l-14.5.2.1-3.9c.2-8.1 3.9-25.8 6.9-32.8.7-1.7 1.6-4.3 2-5.8.5-2.5.8-2.7 2.2-1.5 1.4 1.2 1.6 1 1.1-1.7-.4-1.7 0-4.5.8-6.5l1.5-3.4 1.9 3.2c1.1 1.8 2 3.7 2 4.3zm178.3-3.6c.9 2 1.7 4.3 1.7 5.3 0 .9.7 2.6 1.5 3.6.8 1.1 1.5 2.9 1.5 4.1 0 1.2.4 2.5.9 3.1 2.1 2.3 8.7 33.5 7.3 34.9-.3.3-7.3.5-15.5.5h-14.9l.5-3.8c1-7.8 2.9-17.9 4.2-22.7 3.5-12.6 5.8-19.5 6.6-19.5.5 0 .9-.9.9-2 0-2.2 2-7 3-7 .3 0 1.4 1.6 2.3 3.5zm145.7 4.6c0 .9.7 2.2 1.5 2.9.8.7 1.5 2.2 1.5 3.4 0 1.2.6 3 1.4 4.1.7 1.1 1.6 3.6 1.8 5.5.3 1.9 1 5.5 1.6 8 1.6 7 4.3 22.2 4 22.6-.2.2-7.1.4-15.3.4l-15 .2.1-3.9c.2-7.1 4.4-27 7-33.1.8-1.8 1.4-3.9 1.4-4.6 0-1.6 3.8-10.6 5.3-12.4.8-1.1 1.5-.6 2.8 2 1 1.8 1.8 4 1.9 4.9zm36 .9c0 1.1.4 2 1 2 .5 0 1.2 1.2 1.5 2.7 1.1 5.3 3.8 13.8 5.1 16.5.8 1.4 1.4 4.1 1.4 6 0 1.9.7 5.8 1.6 8.7.8 2.9 1.4 6.4 1.2 7.8l-.3 2.5-15-.1c-8.2-.1-15.1-.3-15.3-.5-.5-.6 2.9-20.8 4.3-25.6.7-2.5 1.6-5.7 1.9-7.3.4-1.5 1.1-2.7 1.6-2.7.6 0 1-1.5 1-3.4s.4-3.7.9-4c1.2-.8 5.1-8.9 5.1-10.7 0-.7.9.3 2 2.4 1.1 2 2 4.6 2 5.7zm35.7.1c-.3 1.1.2 1.9 1.4 2.2 1.5.4 1.9 1.4 1.9 4.5 0 2.2.5 4.2 1.1 4.4.6.2 1.3 2.6 1.6 5.3.3 2.8 1 5.5 1.5 6.2.5.6 1.3 5.3 1.8 10.4.5 5 1.3 9.6 1.9 10.2.6.6 1.1 1.5 1.1 1.9 0 .4-7 .8-15.6.8h-15.6l.6-3.3c.4-1.7 1.1-6.4 1.7-10.2.6-3.9 1.7-9.3 2.5-12.1.8-2.8 1.4-5.8 1.4-6.6 0-.9.7-2.1 1.5-2.8.8-.7 1.5-2.4 1.5-3.7 0-1.4.6-3.7 1.4-5.1.8-1.5 2.2-4.6 3.1-6.9l1.8-4.2 1.9 3.6c1.1 2 1.7 4.4 1.5 5.4zm36.3-3.3c0 .8.6 2.6 1.4 4 1.7 3.5 3.6 8.8 4.6 13.2.4 1.9 1.2 5.5 1.8 8 2 8.3 3.6 17.5 3.6 20.9l.1 3.4-15-.2c-8.2-.1-15.1-.4-15.3-.6-.3-.2.3-2.8 1.1-5.7.9-2.9 1.8-8 2-11.2.2-3.3.9-6.2 1.5-6.4.7-.2 1.2-1.8 1.2-3.5 0-1.8.7-4.5 1.5-6.1.8-1.5 1.5-3.8 1.5-5 0-2.6 3-11.2 5-14.4l1.5-2.2 1.7 2.2c1 1.3 1.8 2.9 1.8 3.6zm-651-2.9c0 1 .7 2.1 1.5 2.5.8.3 1.5 1.4 1.5 2.4 0 1.1.7 2.5 1.5 3.2.8.7 1.5 2.9 1.5 4.9 0 2 .5 4.2 1 4.7.6.6 1.5 3.3 1.9 6 .5 2.7 1.4 6.2 1.9 7.9 1.1 3 3.4 19.6 2.9 20.1-.1.2-6.8.4-14.7.5l-14.5.1-.3-3.3c-.4-3.3 1.9-14 4.4-21.4.8-2.3 1.4-5.2 1.4-6.6 0-1.4.7-3.4 1.5-4.5.8-1 1.5-3.5 1.5-5.5s.7-4.2 1.5-4.9c.8-.7 1.5-1.9 1.5-2.6 0-1.7 2.2-5.4 3.2-5.4.5 0 .8.9.8 1.9zm681.1 27.3c-.1 13.4-.5 24.5-.9 24.9-.4.3-3.3.3-6.6.1l-5.8-.4.7-3.1c.4-1.8 1.2-7 1.9-11.7.7-4.7 1.8-9.5 2.4-10.7.7-1.2 1.2-3.7 1.2-5.5 0-1.9.7-4.3 1.5-5.4.8-1 1.5-2.9 1.5-4.1 0-2.4 3.1-9.5 3.8-8.9.2.3.3 11.4.3 24.8zM66.6 865.5c.3 1.3 1.2 2.9 2 3.6.8.6 1.4 2.3 1.4 3.8.1 1.4.7 3.7 1.5 5.1.8 1.4 1.4 3.6 1.5 4.9 0 1.3.7 4.4 1.5 7 2 6.5 3.4 21.2 2 21.7-.6.3-7.1.3-14.5.2l-13.5-.3.4-4.5c.1-2.5.6-5 1.1-5.5.4-.6 1-4.1 1.3-7.8.2-3.8 1-7.4 1.6-8 .6-.6 1.1-2.9 1.1-5.2 0-2.3.7-5 1.5-6.1.8-1 1.5-2.8 1.5-3.9s.5-2.7 1-3.5c.8-1.3 1.2-1.2 2.5.7 2.3 3.3 3.5 2.8 3.5-1.2s1.7-4.7 2.6-1z" />
        <path
                d="M303.5 33.1c-1.1 1.6.5 2.8 3.3 2.6 1.6-.2 2.7-.8 2.7-1.7 0-1.6-5.1-2.4-6-.9zM306 50.6c0 .9.5 1.4 1.2 1.2 1.8-.6 2.1-2.8.4-2.8-.9 0-1.6.7-1.6 1.6zM359.1 36.8c-1.1 2-.4 6.2 1 6.2.5 0 .9-1.8.9-4 0-4.4-.4-4.9-1.9-2.2zM357.9 44.7c-.1.5-.1 1.2 0 1.7s-.5 1.6-1.3 2.5c-1 1.1-1.2 2.1-.5 3.1.8 1.3 1 1.3 1.9 0 1-1.5 1.4-8 .5-8-.3 0-.6.3-.6.7zM355.5 55.1c-1 1.5.3 2.5 1.6 1.2.7-.7.7-1.3.1-1.7-.6-.3-1.4-.1-1.7.5zM394.5 34.7c1.1 4.6 1.8 4.6 2.9 0 .5-2.3.3-2.7-1.5-2.7s-2 .4-1.4 2.7zM383.5 41.1c-.4.6-.5 1.3-.2 1.6.7.7 2.7-.6 2.7-1.8 0-1.2-1.7-1.2-2.5.2zM382 55.9c-1.7 3.3-1.1 4.1 1.3 1.8 2.3-2.1 2.5-3.7.7-3.7-.5 0-1.4.9-2 1.9zM456.4 33.1c-1 1.7 1.3 3.6 2.7 2.2 1.2-1.2.4-3.3-1.1-3.3-.5 0-1.2.5-1.6 1.1zM463 33c0 .5.6 1 1.4 1 .8 0 1.8-.5 2.1-1 .3-.6-.3-1-1.4-1-1.2 0-2.1.4-2.1 1zM466.2 44c-1.8 2.9-1.5 3.6.8 1.5 2-1.8 2.6-3.5 1.2-3.5-.4 0-1.3.9-2 2zM450.4 49.3c-.3.9-.4 2.4-.2 3.4.3 1.6.5 1.5 1.7-.6.9-1.6 1-2.6.2-3.4-.7-.7-1.2-.6-1.7.6zM485 33c2 1.3 7 1.3 7 0 0-.6-1.9-1-4.2-1-3.2 0-3.9.3-2.8 1zM487.3 46c.3 1.1.1 2.3-.4 2.6-1.4.8-.1 2.4 1.5 1.8 1.9-.7 2.6-4 1.3-5.3-1.7-1.7-3-1.3-2.4.9zM525 56.5c0 1.4.5 2.5 1 2.5.6 0 1-1.1 1-2.5s-.4-2.5-1-2.5c-.5 0-1 1.1-1 2.5zM678.5 33.1c-.9 1.3 4.5 6.3 5.5 5.3.5-.5 1.1-2.1 1.2-3.4.3-2.2-.1-2.5-2.9-2.7-1.8-.1-3.5.3-3.8.8zM739.1 41.1c-1.1 1.9-1 2.4.9 4.3l2.2 2.1-.7-2.3c-.5-1.6-.2-2.2.9-2.2 1.9 0 2.1-1.1.4-2.8-1.6-1.6-2.1-1.5-3.7.9zM847.2 42.6c-.7.8-1.2 2.4-1 3.6.3 2.1.5 2 3.3-1 3.6-3.8 4.2-3.9 7.8-.7 3.7 3.3 3.4 6.4-1 9.7l-3.6 2.8h3c4.1 0 6.3-2.7 6.3-7.8 0-5.8-2.6-8.2-8.7-8.2-3 .1-5.3.7-6.1 1.6z" />
        <path
                d="M846 52.8c0 2.3 1.9 4.2 4.2 4.2 1.6 0 1.7-.3.7-2.3-2-3.8-4.9-4.9-4.9-1.9zM230 180.4c1.5 1.4 9.4 2.8 10.4 1.8 1-1-4.6-3.2-8.2-3.2-3.1 0-3.4.2-2.2 1.4zM246 180c-.8.5-1.1 1.2-.8 1.6 1 .9 3.8-.3 3.8-1.6 0-1.2-1-1.3-3 0zM270.4 180.1c-.3.6-.1 1.6.5 2.2.8.8 1.1.5 1.1-1.1 0-2.4-.5-2.8-1.6-1.1zM286.5 180c.3.5 1.2 1 2 1s1.7-.5 2-1c.4-.6-.5-1-2-1s-2.4.4-2 1zM294.8 180.1c-.6.4-.8 1.1-.4 1.7.9 1.5 5.4 1.1 7-.7 1.3-1.4 1.1-1.6-2.1-1.6-1.9 0-4 .3-4.5.6zM373 180c0 .5-.7.7-1.6.3-1.1-.4-1.5-.2-1.2.7.7 2.1 4.4 2.1 6.3 0 1.8-1.9 1.7-2-.8-2-1.5 0-2.7.4-2.7 1zM384.1 180.4c-1.4 1.7-.1 2.3 5.4 2.2 3-.1 4.1-.5 4.3-1.9.3-1.4-.4-1.7-4.1-1.7-2.6 0-4.9.6-5.6 1.4zM792 179.8c0 .5.6 1.7 1.4 2.8 1.4 1.9 1.5 1.9 4.6 0 2.6-1.5 4.4-1.7 9-1.3 4.2.5 6.2.3 7.6-.8 1.7-1.3.5-1.4-10.3-1.5-6.8 0-12.3.4-12.3.8zM820 180.5c-1.4 1.7-.2 2.5 3 1.9 1.5-.4 3.1-.1 3.4.5 1 1.6 4.6 1.3 4.6-.3 0-.8-.6-1.8-1.2-2.2-2-1.3-8.8-1.1-9.8.1zM833.4 180.4c-1.5 1.2-1.6 1.7-.7 2.7 1 1 1.6.9 3.1-.4 1-.9 2.4-1.7 3-1.7.7 0 1.2-.5 1.2-1 0-1.5-4.3-1.2-6.6.4zM849.3 179.7c.9.2 2.5.2 3.5 0 .9-.3.1-.5-1.8-.5-1.9 0-2.7.2-1.7.5zM868 181.1c0 1.7.5 2 3.7 1.7 2.7-.2 3.9-.8 4.1-2.1.3-1.4-.4-1.7-3.7-1.7-3.5 0-4.1.3-4.1 2.1zM880 180c0 1.3 3.8 3.2 5 2.5 2.2-1.4 1-3.5-2-3.5-1.6 0-3 .4-3 1zM272.6 190.8c-.8 1.4.5 5.2 1.9 5.2 1.8 0 2.7-3 1.4-4.6-1.3-1.6-2.5-1.8-3.3-.6zM370 191c0 1.2 3.5 3.1 4.4 2.3 1.5-1.5.4-3.3-1.9-3.3-1.4 0-2.5.4-2.5 1zM391.5 190.9c-.6 1.1.9 2.3 1.9 1.4.9-.9.7-2.3-.3-2.3-.6 0-1.2.4-1.6.9zM795 191.5c0 .8.7 1.5 1.5 1.5s1.5-.7 1.5-1.5-.7-1.5-1.5-1.5-1.5.7-1.5 1.5zM881 191.9c0 .5.7 1.1 1.5 1.5.8.3 1.5 1.5 1.5 2.6s.5 2 1 2c.6 0 1-1.6 1-3.5 0-3.1-.3-3.5-2.5-3.5-1.4 0-2.5.4-2.5.9zM352.8 195c.3 2.1.8 2.8 1.4 2.2 1.2-1.2.7-4.4-.8-4.9-.7-.2-.9.8-.6 2.7zM124.6 195.7c-1.2 1.2-.6 3.3.9 3.3.8 0 1.5-.6 1.5-1.4 0-1.7-1.4-2.8-2.4-1.9zM804.2 196.1c.5 1.6 5.5 2.2 6.3.8.4-.5-.3-.9-1.4-.9-1 0-2.7-.3-3.7-.7-1.2-.4-1.5-.2-1.2.8zM471.9 197.2c-.7 1.5-.6 5.8.2 5.8.5 0 .9-1.4.9-3 0-2.5-.6-3.9-1.1-2.8zM482 204.6c0 1.4.4 2.3 1 1.9.6-.3 1-1.5 1-2.6 0-1-.4-1.9-1-1.9-.5 0-1 1.2-1 2.6zM308.7 216.7c-2.6.7-1 2.3 2.4 2.3 2 0 2.9-.4 2.7-1.3-.5-1.3-2.4-1.7-5.1-1zM849.8 230.2c.9.9 1.5.9 2.4 0 .9-.9.7-1.2-1.2-1.2s-2.1.3-1.2 1.2zM737 257.6c0 .9.5 1.4 1.2 1.2 1.8-.6 2.1-2.8.4-2.8-.9 0-1.6.7-1.6 1.6zM206 263.8c0 .4 1 1.3 2.1 2.1 1.9 1.1 2.1 1.1 1.5-.4-.3-.9-.6-1.9-.6-2.1 0-.2-.7-.4-1.5-.4s-1.5.3-1.5.8zM730.2 266.7c.2 1 1.1 1.9 2.1 2.1 1.6.3 1.7.1.5-1.7-1.6-2.5-3.1-2.7-2.6-.4zM48.4 300.1c-.3.6-.1 1.6.5 2.2.8.8 1.1.5 1.1-1.1 0-2.4-.5-2.8-1.6-1.1zM112 301.9c-.5 1.1-.7 2.7-.3 3.6.5 1.4.8 1.2 1.8-1.1l1.2-2.9.6 2.7c.7 2.8 2.7 3.9 2.7 1.5-.1-5.3-3.8-7.7-6-3.8zM80.4 314.1c-1 1.7 1.3 3.6 2.7 2.2 1.2-1.2.4-3.3-1.1-3.3-.5 0-1.2.5-1.6 1.1zM44 320.8c0 2.6 2.6 4 4.2 2.4.8-.8.6-1.3-.8-1.8-1-.4-2.2-1.2-2.6-1.8-.4-.6-.8-.1-.8 1.2zM62 325.9c-1.6 3-1.2 4.1 1.4 4.1 2.8 0 3.7-1.7 2.4-4.3-1.1-2.2-2.5-2.2-3.8.2zM22.2 326.2c-.7.7-1.2 2.9-1.2 5 0 3.2.3 3.8 2.1 3.8s2-.5 1.6-4.6c-.6-5.3-.9-5.8-2.5-4.2zM37.1 333.4c-.9 1-.9 1.6-.1 2.1 1.7 1 3.7-1.2 2.4-2.5-.8-.8-1.5-.6-2.3.4zM31.7 339.7c-.4.3-.7 1.3-.7 2.2 0 1.1.3 1.2 1.2.3.9-.9 1.4-.7 2.4.6 1.7 2.4 2.8.9 1.2-1.7-1.3-2.1-2.9-2.7-4.1-1.4zM104.8 344.7c-1.8.5-2.3 1.5-1.2 2.6.9.8 4.4-1.1 4.4-2.3 0-1-.3-1.1-3.2-.3zM103 355.4c0 1 .9 1.6 2.5 1.6 1.4 0 2.5-.5 2.5-1 0-.6-.4-1-.9-1s-1.6-.3-2.5-.6c-1.1-.4-1.6-.1-1.6 1zM54.5 362.9c-.6 1.1.9 2.3 1.9 1.4.9-.9.7-2.3-.3-2.3-.6 0-1.2.4-1.6.9zM23.7 363.7c-1.3 1.3-.7 2 1.6 1.8 3.2-.4 3.3-.4 1.7-1.5-1.8-1.2-2.4-1.2-3.3-.3zM69.4 366.1c-1 1.6 1.1 3.1 3.7 2.7 3.4-.4 3.1-3.2-.3-3.5-1.5-.1-3 .3-3.4.8zM71.3 384.7c.8.9 2 1.2 2.6.9 1.9-1.2 1.2-2.4-1.5-2.4-2.3 0-2.4.2-1.1 1.5zM21 423.8c.1 13 .5 22.2 1 22.2s1.7-1.4 2.6-3.1c1.3-2.7 1.5-6 1.2-20-.3-15.9-.4-17-2.5-19.1l-2.3-2.2v22.2zM31.7 413.8c-.4 3.9.6 7.2 2.4 7.2.7 0 .9-1.2.5-3.3-.4-1.7-.7-4-.7-4.9-.1-3.5-1.7-2.7-2.2 1zM120.5 423.1c-.4.6 0 1.8.9 2.7 1.3 1.4 1.6 1.4 1.6.2 0-1.3.2-1.3 1 0 .9 1.3 1.1 1.3 2 0 1-1.7.4-2.5-2.7-3.4-1.2-.4-2.4-.2-2.8.5zM350.6 438c-4 2.6-4.6 3.8-4.6 9.7 0 4.8-.2 5.2-3 6.2-2.7.9-3 1.4-3 5.1 0 3.5.4 4.3 3 5.8l3 1.7v13.8c0 14.8.8 18.5 5.1 22.4 2.6 2.3 13.1 5.6 15.3 4.7 1.7-.7 2.4-3.9 1.6-7.9-.4-2.4-1.1-3.1-4-3.6-5.9-1.2-8-6.4-8-20 0-6.2.4-9 1.4-9.8 1.9-1.6 13.8-2.4 17-1.1l2.6 1v29.8l3.3 4.3c3.6 4.8 9 7.1 15.2 6.7 3.9-.3 4-.4 4.3-4.1.4-4.4-1.1-6.7-4.2-6.7-1.1-.1-3.2-1-4.6-2.1-2.4-2.1-2.5-2.5-2.5-15.3v-13.1l5.2-.5c6.5-.7 7.5-1.7 7.1-6.6l-.3-3.9-6-.5-6-.5-.3-8.2c-.3-9.4-1.1-10.2-6.9-7.2-3.7 1.9-3.8 2-4.3 8.7l-.5 6.7-9.6.3-9.6.3-.7-3.8c-.3-2.1-.6-6.2-.6-9.1 0-5.8-.7-6.2-5.4-3.2zM543 437.5c-.7.8-1.8 1.5-2.6 1.5-2.1 0-3.4 3.4-3.4 9 0 4.7-.2 5.2-2.9 6.1-2.1.7-3 1.8-3.3 3.8-.6 3.9 0 4.9 3.2 6.6l2.9 1.5.3 14.2c.2 12.1.6 14.9 2.4 18.3 2.5 5 8 7.9 14.9 8h5v-5c0-4.9-.1-5-3.1-5.3-1.8-.2-4.2-1.4-5.5-2.8-2.3-2.4-2.4-3.3-2.4-15.2v-12.7l5.2-.5c6.8-.7 8.7-2.5 7.6-7.1-.9-3.3-1.1-3.4-6.9-3.9l-5.9-.5-.5-8.5c-.4-6.7-.8-8.5-2.1-8.8-.9-.1-2.2.4-2.9 1.3zM21.9 449.2c0 .2-.2 3.5-.4 7.4-.3 7.1-.3 7.2 2.3 7.7 4.5.9 4.5.9 2.6-9.3-.7-3.7-2-6-3.5-6-.5 0-.9.1-1 .2zM46.3 450.2c.2.7 1.2 1.3 2.2 1.3 1 0 2-.6 2.3-1.3.2-.7-.6-1.2-2.3-1.2-1.7 0-2.5.5-2.2 1.2zM414.9 456.5c-6.6 4.3-7.9 8.5-7.9 24.8.1 13.8.1 14.3 2.8 18.2 6.9 9.9 24.3 11.5 34 3 2.6-2.3 2.9-6 .5-6.9-1-.3-2.6-1.1-3.5-1.8-1.4-1-2.2-1-3.5-.1-4.8 3.4-8.8 4.5-12.4 3.4-4.1-1.2-5.4-2.5-6.2-6.1-1.1-4.6 0-5 13.8-5.1 7.1 0 13.7-.5 14.7-1 1.5-.8 1.8-2.3 1.8-9.7 0-8.1-.2-9-3.1-13.2-4.7-6.8-7.4-8-18.2-7.9-7.9 0-9.7.3-12.8 2.4zm18.8 8.6c3.2 2 3.4 2.4 3.1 6.8l-.3 4.6-8.2.3c-7.4.3-8.3.1-9.3-1.8-1.8-3.3.1-8 4-10.2 4.5-2.3 6.5-2.3 10.7.3zM467 455.5c-.7.8-1.8 1.5-2.5 1.5s-2.6 1.7-4.1 3.7l-2.9 3.8-.3 19.6c-.4 22.7-.1 24.2 5.4 23.5 2-.3 3.9-.8 4.3-1.1.3-.4.8-9 1.1-19.2l.5-18.5 2.8-2.4c1.8-1.5 4.1-2.4 6.2-2.4 1.8 0 4-.6 4.7-1.4 1.5-1.4 1.7-5.4.4-7.4-1.1-1.8-14-1.6-15.6.3zM497.5 455.1c-.4.5-1.8 1.4-3.1 1.9-3.8 1.5-6.4 6.7-6.4 13 .1 8.6 4.6 12.7 16.4 14.9 8.1 1.5 10.8 3.4 10.4 7.3-.3 2.7-.9 3.3-4.8 4.6-3.6 1.2-5.4 1.3-10 .4-9.6-2-11.4-1.7-13.4 2.4-.9 2-1.4 3.9-1.1 4.2 1.9 1.9 9.2 3.6 17.2 3.9 8.2.4 9.6.2 14.2-2.1 5.9-3 10.1-8.6 10.1-13.4 0-3.6-2.9-10-5.6-12.2-2.1-1.8-12-5-15.6-5-2.7 0-6.8-3.3-6.8-5.5 0-.6.7-2 1.5-3.2 2.2-3.2 7.4-3.8 14-1.8 5.3 1.7 5.6 1.7 7.5 0 2.8-2.6 2.6-6.9-.5-8.9-2.9-1.9-22.9-2.4-24-.5zM575.4 455.8c-5.1 2.7-7.5 7.2-8.5 15.7-.5 4.6-.4 8.6.1 10.1.9 2.3 1.5 2.5 5.7 2.2l4.8-.3.5-7.5c.3-4.1.9-8.1 1.3-8.8.5-.8 3.4-1.2 8.2-1.2 7 0 7.5-.1 8.1-2.4.3-1.3.4-3.8.2-5.7l-.3-3.4-8.5-.2c-6.4-.1-9.3.2-11.6 1.5zM126.6 455.8c-.8 1.3 1 5.2 2.4 5.2 1.3 0 1.2-1-.4-3.9-.8-1.5-1.6-2-2-1.3zM127.6 465.9c-.3.5.1 1.4 1 2.1 1.1 1 1.8 1 2.7.1.9-.9.9-1.4-.3-2.1-1.9-1.2-2.7-1.2-3.4-.1zM46 472.5c-.6 1.5-.8 3-.6 3.4.3.4-.4.8-1.5.8-1.5.1-2.1-.6-2.6-3-.5-2.7-.7-2.8-1.4-1.2-.4 1.1-.8 2.3-.8 2.7-.1 1.1 3.7 4.8 4.9 4.8 1.9 0 5-4 5-6.4 0-3.5-1.8-4.2-3-1.1zM600.7 478.7c-.4.3-.7 3.2-.7 6.4s-.4 6.9-1 8.3c-.9 2.4-1.4 2.6-7.8 2.6-7.3 0-9.2 1-9.2 4.8 0 5.2 1.5 6.2 9.4 6.2 8.8 0 13.6-1.8 17-6.3 2.4-3.1 2.6-4.2 2.6-13V478h-4.8c-2.7 0-5.2.3-5.5.7zM79.2 482c.7 1.1 1.8 2 2.5 2 1.7 0 1.6-.5-.3-2.4-2.2-2.3-3.7-2-2.2.4zM36.7 485.8c-.7 1-.4 3.3.6 4.9.5.7.4 1.3-.2 1.3-.5 0-1.2-.6-1.4-1.3-.4-.9-.8-.8-1.6.3-1.2 1.7-.6 2.5 2.6 3.4 3 .9 7-2.9 5.3-5-.7-.7-1.6-1.2-2-.9-.4.3-.7-.3-.6-1.2.1-1.7-1.9-2.9-2.7-1.5zM48.5 503.9c-.6 1.1.9 2.3 1.9 1.4.9-.9.7-2.3-.3-2.3-.6 0-1.2.4-1.6.9zM33.8 512.9c-3.4 1.9-3.6 4.1-.5 4.1 2.4 0 5.4-3.7 4-5-.4-.4-2 0-3.5.9zM117.2 513.2c.2 1.7 1 2.3 3.1 2.5 1.5.1 2.7-.2 2.7-.8 0-.5-.7-.9-1.5-.9-.9 0-1.8-.7-2.1-1.5-.9-2.3-2.6-1.8-2.2.7zM100.6 517.9c-.3.5.1 1.4.8 2 1.6 1.3 3.2-.2 2.1-1.9-.8-1.2-2.2-1.3-2.9-.1zM35.1 519.9c-.7.5-1.1 1.7-.9 2.7.4 1.7.5 1.7 1.7-.4 1.4-2.7 1.2-3.5-.8-2.3zM98.5 523.9c-.6 1.1.9 2.3 1.9 1.4.9-.9.7-2.3-.3-2.3-.6 0-1.2.4-1.6.9zM66.4 534.1c-.3.6-.1 1.6.5 2.2.8.8 1.1.5 1.1-1.1 0-2.4-.5-2.8-1.6-1.1zM86 537c0 .5.7 1 1.5 1s1.5-.5 1.5-1c0-.6-.7-1-1.5-1s-1.5.4-1.5 1zM92.8 540.1c-2.7 1.5-2.2 2.4 1.7 2.7 3.3.2 3.5 0 2.5-1.8-1.2-2.3-1.8-2.4-4.2-.9zM24.7 541.6c-1.1 1.1-.8 4.4.3 4.4 1.5 0 2.4-3 1.3-4.1-.5-.5-1.2-.6-1.6-.3zM44.7 545.6c-.8.8.1 2.4 1.4 2.4.5 0 .9-.7.9-1.5 0-1.5-1.2-2-2.3-.9zM82.7 546.7c-1.2 1.1-.8 2.3.8 2.3.8 0 1.5-.7 1.5-1.5 0-1.6-1.2-2-2.3-.8zM289.6 549.7c-1.1 1.1-.6 2.5.7 2 .6-.2 1.7.3 2.3 1.1.7 1 1.3 1.1 1.7.5.8-1.2-3.7-4.6-4.7-3.6zM285.9 553.7c-.6 1.6-.6 3-.1 3.5.6.6 1.1-.4 1.4-2.6.5-4.3.1-4.6-1.3-.9zM34.2 563.2c-1.9 1.9-1.4 3.3.6 1.6.9-.9 2.3-1.3 3.1-1 .8.3 1.1 0 .7-.7-.9-1.4-2.9-1.4-4.4.1zM21 578.9c0 1.2.5 2.1 1 2.1.6 0 1-.6 1-1.4 0-.8-.4-1.8-1-2.1-.5-.3-1 .3-1 1.4zM21 598.1c0 12.3 1.7 12.4 2.3.2.3-6.2.1-8.5-.9-9.4-1.2-1-1.4.5-1.4 9.2zM38 591c0 .5.7 1 1.5 1s1.5-.5 1.5-1c0-.6-.7-1-1.5-1s-1.5.4-1.5 1zM34.8 608.2c-.2 2.9-.8 6.1-1.2 7-.6 1.4-.4 1.8 1.1 1.8 2 0 2.1-.2 2.6-10.4.1-1.6-.3-3.1-1-3.3-.7-.3-1.3 1.5-1.5 4.9zM21 614.4c0 2.2.3 2.7 1.1 1.9.8-.8.8-1.6 0-3-.9-1.6-1-1.4-1.1 1.1zM403.7 615.4c-.3.8-.2 1.8.3 2.1 1.3.8 2.4-1.5 1.2-2.7-.6-.6-1.1-.4-1.5.6zM21.6 620.6c-.4 1-.1 1.4.6 1.2 1.5-.5 2.3-2.8 1-2.8-.5 0-1.3.7-1.6 1.6zM455.3 639.1c-1.3.5-2.3 1.3-2.3 1.9 0 1.6 4 1.2 4.7-.5.8-2.1.2-2.4-2.4-1.4zM23 647.4c0 2.8.3 3.4 1.6 2.9 1-.4 1.2-.9.5-1.6-.5-.5-.7-1.5-.5-2.2.3-.7.1-1.6-.5-2-.7-.4-1.1.7-1.1 2.9zM446.8 649.7c-2.4.6-2.3 2.9.2 3.6 2.4.6 6-.2 6-1.4 0-.8-3.4-3.1-4.2-2.8-.2.1-1.1.3-2 .6zM476.8 651.1c-2 1.1-2.4 3.4-.7 4.4 1.1.8 3.8-2.2 3.9-4.3 0-1.4-.9-1.5-3.2-.1zM445.5 657.9c-.6 1.1.9 2.3 1.9 1.4.9-.9.7-2.3-.3-2.3-.6 0-1.2.4-1.6.9zM441.6 666.9c-.3.5.1 1.4.9 2.1 1.2 1 1.5 1 1.5-.3 0-1.9-1.6-3.1-2.4-1.8zM454 674.8c0 1.1 7 3.3 8.1 2.6.5-.2.6-1.1.2-1.9-.6-1.6-8.3-2.2-8.3-.7zM486.5 683.1c.5.7.4 1-.3.6-.5-.4-1.7-.4-2.6-.1-2.5 1 0 3.3 3.2 3.1 3.2-.3 3.9-3.9.8-4.5-1.3-.3-1.6 0-1.1.9zM454 687c0 1.5.7 2 2.5 2 1.4 0 2.5-.2 2.5-.4s-1.1-1.1-2.5-2c-2.4-1.6-2.5-1.6-2.5.4zM446.5 697c1 1.1 2.3 2 2.8 2 .6 0 .2-.9-.8-2s-2.3-2-2.8-2c-.6 0-.2.9.8 2zM498 707c-2.2 2.2-1.9 4 .6 4 1.2 0 3.4-3.6 3.4-5.6 0-1.1-2.2-.2-4 1.6zM34.4 708.4c-.6 1.6.2 3.6 1.4 3.6 1.1 0 1.2-3.9.1-4.5-.5-.4-1.2.1-1.5.9zM470.2 710.3c-2.4 2.6-2.7 5.7-.5 6.4 1.6.6 3.5-3.3 3.1-6.3l-.3-2.6-2.3 2.5zM484.7 711.2c-.4 1.2-.4 2.4-.1 2.7.8.9 3.7-2.7 3-3.8-1.1-1.7-2.3-1.3-2.9 1.1zM76.6 712.9c-.4.5-.3 1.7 0 2.6.5 1.1 0 1.8-1.5 2.2-2.7.7-2.4 3.7.5 4.1 1.6.2 2.3-.5 3.3-3.8 1.2-4 .9-6-.9-6-.5 0-1.1.4-1.4.9zM35 715c-.8.5-1.1 1.2-.7 1.6.4.4 1.3.2 1.9-.4 1.5-1.5.7-2.4-1.2-1.2zM54.2 715.2c.5 1.5 2.8 2.3 2.8 1 0-.5-.7-1.3-1.6-1.6-1-.4-1.4-.1-1.2.6zM430.2 724.2c.5 3.2 2.8 3.5 2.8.4 0-1.7-.5-2.6-1.6-2.6-1 0-1.4.7-1.2 2.2zM396 723.8c0 .5 1.3 2.3 2.9 4.1 2.7 3 2.9 3.1 3.4 1 .8-3.1-.2-5.2-1.9-3.8-1.1.9-1.5.8-2-.5-.6-1.7-2.4-2.2-2.4-.8zM22.6 728.2c-1.5 1.6-1.6 2.2-.5 2.9 1.8 1.1 2.7.3 2.7-2.6 0-1.4-.1-2.5-.2-2.4 0 0-.9 1-2 2.1zM486.6 726.7c-1.1 1.1-.6 2.3.9 2.3.8 0 1.5-.4 1.5-.9 0-1.3-1.6-2.2-2.4-1.4zM34.2 732.1c.2.7 1 1.5 1.7 1.7.8.3 1.2-.1.9-.9-.2-.7-1-1.5-1.7-1.7-.8-.3-1.2.1-.9.9zM44.4 733.1c-1 1.7 1.3 3.6 2.7 2.2 1.2-1.2.4-3.3-1.1-3.3-.5 0-1.2.5-1.6 1.1zM21 736.9c0 1 .9 2.1 2 2.4 2.3.6 2.4.3 1-2.4-1.4-2.4-3-2.5-3 0zM424 738c0 1.2 4 3.3 4.8 2.5.4-.4-.2-1.3-1.2-2.1-2.3-1.6-3.6-1.8-3.6-.4zM48.4 750.1c-.3.6-.1 1.6.5 2.2.8.8 1.1.5 1.1-1.1 0-2.4-.5-2.8-1.6-1.1zM63.3 754.4c.4 1-.5 1.6-3.4 2.1-3.7.6-4.9 1.8-3.1 2.9.7.4 9.1-1.2 10-2 .2-.1-.1-1.2-.8-2.3-1.2-2.3-3.5-2.9-2.7-.7zM449.3 765.7c.8.9 2 1.2 2.6.9 1.9-1.2 1.2-2.4-1.5-2.4-2.3 0-2.4.2-1.1 1.5zM44 775.5c0 .8.5 1.5 1 1.5.6 0 1-.7 1-1.5s-.4-1.5-1-1.5c-.5 0-1 .7-1 1.5zM405.2 775.2c.5 1.5 2.8 2.3 2.8 1 0-.5-.7-1.3-1.6-1.6-1-.4-1.4-.1-1.2.6zM24.4 780.1c-.3.6-.1 1.6.5 2.2.8.8 1.1.5 1.1-1.1 0-2.4-.5-2.8-1.6-1.1zM34.5 784.1c-.4.6-.5 1.3-.2 1.6.7.7 2.7-.6 2.7-1.8 0-1.2-1.7-1.2-2.5.2zM411 795c0 1.1.6 2 1.3 2 1.9 0 2.7-1 2-2.6-.8-2.1-3.3-1.7-3.3.6zM427.4 802.5c-.4.9-.3 1.9.1 2.3.4.4 1 .2 1.2-.5.2-.7 1.1-.9 2-.6 1.1.4 1.4.2 1.1-.8-.7-2-3.7-2.3-4.4-.4zM694.6 731.9c-.4.6.3 1.5 1.4 2.1 2.3 1.2 2.7-.2.6-1.9-.9-.8-1.6-.8-2-.2zM652 766.6c-.7 1.7-.7 3.2.1 4.5 1.3 2.5 2.9 1.6 2.4-1.3-.3-1.2 0-2.5.6-2.9 1.3-.7.4-2.9-1.2-2.9-.5 0-1.4 1.2-1.9 2.6zM596 766.4c0 2.3 1.6 2.7 1.7.5.1-1-.2-1.9-.8-1.9-.5 0-.9.6-.9 1.4zM619 779.5c0 .8.7 1.5 1.5 1.5s1.5-.7 1.5-1.5-.7-1.5-1.5-1.5-1.5.7-1.5 1.5zM568.2 779.9c.2.7.7 1.2 1.1 1.2 1.2-.1.9-1.5-.3-2-.7-.2-1.1.2-.8.8zM583.1 781.8c-1.5 2.7-.2 6.2 2.1 6.2 1.5 0 1.8-.3 1.1-1.3-1.6-2-1.2-4.6.6-3.9 1.4.5 1.4.3.2-1.1-1.7-2.2-2.8-2.1-4 .1zM785.3 783.5c.5 1.4 2.9 1.3 3.4-.2.3-.7-.4-1.1-1.6-1-1.2.1-2 .6-1.8 1.2zM597 789c0 1.1.7 2 1.5 2 1.7 0 1.8-.2.9-2.4-.9-2.3-2.4-2-2.4.4zM559.9 788.7c-.3 2.1.4 5.9 1.3 7 1.5 1.8 3.8 1.6 3.8-.2 0-3.6-4.7-9.7-5.1-6.8zM601.2 792.1c.2.7 1 1.5 1.7 1.7.8.3 1.2-.1.9-.9-.2-.7-1-1.5-1.7-1.7-.8-.3-1.2.1-.9.9zM618.6 792.6c-.5 1.3-.2 1.5 1.6 1 1.3-.3 2.9-.6 3.6-.6.7 0 1-.5.7-1-1-1.6-5.2-1.2-5.9.6zM724.3 793.5c-.8 2.2.6 3.3 1.7 1.5 1.3-2 1.2-3 0-3-.6 0-1.3.7-1.7 1.5zM543.7 800.7c-1.6 1.5-.6 3.3 1.8 3.3 2.7 0 3.2-.9 1.3-2.8-1.4-1.4-2.2-1.5-3.1-.5zM775.4 801.6c.3.9.6 2 .6 2.5s.9.9 2 .9c2.6 0 2.6-2.6.1-4-2.7-1.4-3.4-1.3-2.7.6zM712.5 804c-.4.6.7 1 2.5 1s2.9-.4 2.5-1c-.3-.6-1.5-1-2.5-1s-2.2.4-2.5 1zM782 804.5c0 .8.7 1.5 1.6 1.5 1.4 0 1.4-.3.4-1.5-.7-.8-1.4-1.5-1.6-1.5-.2 0-.4.7-.4 1.5zM307.6 713.3c-.8 3.1-.8 3.2.7 3.2 1.3 0 1.9-4.2.7-5-.4-.3-1 .5-1.4 1.8zM333 720.7c0 .5.9 1.8 2 2.8 1.1 1 1.7 2.2 1.4 2.6-.3.5.2.9 1 .9.9 0 1.6-.9 1.6-2s-.5-2-1.2-2c-.6 0-2-.7-3-1.7-1-.9-1.8-1.2-1.8-.6zM308 727.3c2 1.6 2.4 7.8.4 7-.8-.3-1.4.1-1.4 1.1 0 1.8 3.5 2.2 4.6.5 1.7-2.9 1.3-6.8-.8-8.4-2.6-1.8-5-2-2.8-.2zM202.3 735.7c-1.5.6-1.8 4.3-.3 4.3.9 0 3-3.1 3-4.4 0-.7-1-.7-2.7.1zM340.6 738.6c-1 2.7-.7 4.4.9 4.4.8 0 1.7 1.1 2.1 2.5.6 2.6 1.8 3.2 2.9 1.5.8-1.2-1.6-5-3.2-5-.7 0-1.3-.5-1.3-1 0-.6.5-1 1-1 .6 0 1-.7 1-1.5 0-2-2.6-1.9-3.4.1zM261.4 739.6c.4 1 .4 1.5 0 1.1-.4-.4-1.3-.2-2 .4-1.7 1.4 0 4.9 2.3 4.9 1.3 0 1.4-.3.5-1.2-1.7-1.7-1.5-2.8.4-2.8s1.5-3.1-.5-3.8c-1-.3-1.2 0-.7 1.4zM326.1 738.9c-2.1.6-2.2.8-.8 1.9 2 1.7 5.2 1.2 5.2-.7 0-1.8-1.3-2.1-4.4-1.2zM236 741.9c0 3.9 1.4 4.8 1.7 1 .1-1.5-.2-3.1-.7-3.4-.6-.4-1 .7-1 2.4zM209 743.9c0 .5.7 1.4 1.5 2.1 1.2 1 1.5 1 1.5-.3 0-.8-.7-1.7-1.5-2.1-.8-.3-1.5-.2-1.5.3zM299.3 744.2c-2.6 1.2-3.1 3.8-.8 3.8.8 0 1.5-.5 1.5-1 0-.6.8-1 1.7-.8 1 .2 1.9-.4 2.1-1.5.4-1.9-1.2-2.1-4.5-.5zM299 752c0 .5.7 1 1.5 1s1.5-.5 1.5-1c0-.6-.7-1-1.5-1s-1.5.4-1.5 1zM171.5 762.1c-1 1.4-.1 2.1 1.9 1.3.9-.3 1.3-1 1-1.5-.7-1.2-2.1-1.1-2.9.2zM161.2 770.2c-.7.7-1.2 1.8-1.2 2.5s-.6 1.3-1.4 1.3c-1.7 0-2.7 3.5-1.7 6.3.7 1.8.8 1.7 1.4-1.1.5-2.6 1.3-3.4 3.6-3.8 3.2-.7 4.4-2.4 3.5-4.9-.7-1.8-2.6-1.9-4.2-.3zM295.7 770.7c-.4.3-.7 1.6-.7 2.7.1 1.9.2 1.9 1.1.3.5-.9 1.9-1.7 3-1.7s1.7-.5 1.4-1c-.7-1.1-3.8-1.3-4.8-.3zM178.7 774.6c-.9 1 .2 2.4 1.9 2.4.8 0 1.4-.7 1.4-1.5 0-1.5-2.1-2.1-3.3-.9zM301 781.9c0 .5 1.1.8 2.5.8s2.8-.3 3.1-.8c.3-.5-.9-.9-2.5-.9-1.7 0-3.1.4-3.1.9zM188.8 782.7c-1 .2-1.8 1.1-1.8 1.9 0 2 1.4 1.7 3.5-.6 1.8-2 1.6-2.2-1.7-1.3zM330.6 791.8c-.9 1.5.3 3.9 2.2 4.4 3.2.9 3.7.8 3.7-.5 0-.6-.7-1.2-1.5-1.2s-2-.8-2.6-1.9c-.7-1.1-1.4-1.5-1.8-.8zM184 795c.6 1.1 1.7 2 2.5 2 1.3 0 1.3-.3.3-2-.7-1.1-1.9-2-2.6-2-1 0-1 .5-.2 2zM274 794.5c-1.4 1.6-.5 3.5 1.6 3.5 1.5 0 2-3.5.5-4.4-.5-.3-1.4.1-2.1.9zM246.7 797.7c-.3.5-.4 1.9-.3 3.3.1 2.1.6 2.5 3.1 2.5 2 0 3-.5 3-1.5 0-.9-.7-1.4-1.7-1.2-1.1.2-1.8-.3-1.8-1.2 0-1.7-1.6-3-2.3-1.9zM301.6 799.9c-1.9 2.1-1.2 5.8.9 4.1.7-.6 1.3-2.2 1.3-3.5 0-3 0-3-2.2-.6zM256.7 799.7c-1.1 1.7 2.1 3.9 3.5 2.5.9-.9.8-1.2-.4-1.2-.9 0-1.8-.5-2-1.2-.3-.8-.6-.9-1.1-.1zM292.6 799.7c-.4.5-1.3.8-1.9.8-.7 0-1.1 1.2-.9 3 .5 4.1.7 4.1 2.9-.5 1.9-3.6 1.8-5.2-.1-3.3zM346.1 800.4c-.8.9-.8 2.1-.1 4 1 2.7 2.8 3.1 6.5 1.6 1.8-.7 1.9-.8.3-1.5-1-.4-1.6-1.1-1.3-1.5.9-1.5-.7-4-2.5-4-1 0-2.3.6-2.9 1.4zM231.7 800.7c-.8 1.4-.2 5.6.9 6 .6.2 1-1.2 1-3.2 0-3.2-.9-4.5-1.9-2.8zM148.4 803.2c-1.5 2.4 2.7 3.8 8.9 2.9 1.3-.2.7-2.9-.9-3.5-2.6-1-7.2-.7-8 .6zM367.1 803.3c-1.2 1.5-.5 2.7 1.6 2.7.7 0 1.3-.9 1.3-2 0-2.3-1.3-2.6-2.9-.7zM308 804c0 1.5 2.8 3 4.4 2.4 1.6-.6 2.2-2.3.9-2.5-3.2-.6-5.3-.5-5.3.1zM123.3 804.7c-3.8.7-2.5 2.3 1.7 2.1 2.4-.1 3.9-.6 3.7-1.2-.4-1.3-2.2-1.5-5.4-.9zM257 805.5c-1.4 1.6-.3 2 1.9.6.8-.5.9-1.1.3-1.5-.5-.3-1.5.1-2.2.9zM140.5 806c-.3.5.3 1 1.4 1 1.2 0 2.1-.5 2.1-1 0-.6-.6-1-1.4-1-.8 0-1.8.4-2.1 1zM352 871c-2.3.5-2.3.7-.6 1.3 1.1.4 2.4.3 3-.3 1.4-1.4.5-1.8-2.4-1zM530 875.5c0 1.4.5 2.5 1 2.5.6 0 1-1.1 1-2.5s-.4-2.5-1-2.5c-.5 0-1 1.1-1 2.5zM522.2 904.2c.2.6 1 1.4 1.6 1.6.7.2 1-.2.6-1.2-.7-1.8-2.8-2.2-2.2-.4zM526.5 904.1c-.4.6-.5 1.3-.2 1.6.7.7 2.7-.6 2.7-1.8 0-1.2-1.7-1.2-2.5.2zM562.6 877.6c-1.1.7-1.6 1.7-1.3 2.1.4.4 1.5-.1 2.4-1 2.2-2.1 1.4-3-1.1-1.1zM558 890.4c0 1.3 2 2.6 4.1 2.6.5 0 .9-.9.9-2 0-1.5-.7-2-2.5-2-1.5 0-2.5.6-2.5 1.4zM26.6 865.7c-.4.9-.2 2.1.4 2.7.7.7 1 .2 1-1.7 0-3.1-.5-3.4-1.4-1zM30.7 884.7c-.5.7-.3 7.5.2 12.5.1.5.8.8 1.7.8 1 0 1.4.6 1.1 1.4-.7 1.8 1.1 8.6 2.3 8.6.4 0 .8-3.2.9-7 0-6.2-.2-7-1.8-7s-1.9-.7-1.8-4.7c.2-4.3-1.3-6.8-2.6-4.6zM101.3 871.7c-1.8.7-1.6 3.8.2 5.3 1.3 1.1 1.5.7 1.5-2.4 0-2-.1-3.6-.2-3.5-.2 0-.9.3-1.5.6zM102.6 881.8c-.8 1.3.9 7.5 2.2 8 1.7.5 1.6-5.6-.2-7.4-.8-.8-1.7-1.1-2-.6zM95.1 904c-1.7 1-.7 4 1.4 4 .8 0 1.5-.9 1.5-1.9 0-2.4-1.2-3.2-2.9-2.1zM90 906c-.8.5-1.1 1.2-.7 1.6.4.4 1.5 0 2.4-.9 1.8-1.8.8-2.3-1.7-.7zM135.7 887.7c-.3.5-.4 1.9-.3 3.3.1 2 .6 2.4 2.6 2.2 3.8-.4 4.4-1.8 1.9-4.1-2.4-2.2-3.5-2.6-4.2-1.4zM169.6 868.9c-2.5 2.8-2 5.8 1.4 7.6 1.6.8 3.1 1.5 3.5 1.5 1.1 0 .4-3.7-1.4-7.3-1.8-3.4-1.9-3.5-3.5-1.8zM381 885.8c0 .5.9 1.7 2 2.7 2.2 2 2.6 1.4 1-1.6-1.1-1.9-3-2.6-3-1.1zM378 891c0 1.1.5 2 1 2 .6 0 1-.9 1-2s-.4-2-1-2c-.5 0-1 .9-1 2zM383.5 898.5c-.3.8-.7 2.2-1 3-.2.8-1.4 1.5-2.5 1.5s-2 .6-2 1.4c0 .9 1.3 1.4 4 1.4 4.4.1 6-1.2 3.4-2.6-1.1-.6-1.3-1.1-.5-1.6 1.4-.9 1.5-4.6.1-4.6-.6 0-1.3.7-1.5 1.5zM601.8 867.7c-1 .2-1.8 1.1-1.8 1.8 0 1.7 4.1 5.7 4.9 4.9.3-.4.1-.9-.5-1.1-.6-.2-1-1.7-.8-3.3.2-1.7.3-2.9.1-2.9-.1.1-1 .3-1.9.6zM781.7 870.3c-1.6 3.1-1.6 3.2 2.1 6.9 3.5 3.6 6.2 4.8 6.2 2.9 0-.5-.7-1.4-1.5-2.1-.8-.7-1.5-2.4-1.5-3.7 0-1.4-.8-3.6-1.9-4.9l-1.9-2.4-1.5 3.3zM825.5 896c.6 10.4 3.5 12.6 3.4 2.6-.1-5.3-.4-6.5-1.9-6.9-1.6-.4-1.7.2-1.5 4.3zM848.6 886.5c-.3.9.1 1.8 1 2.2 1.9.7 2.8-.2 2.1-2.2-.8-1.9-2.3-1.9-3.1 0zM846 897c0 1.1.5 2 1 2 .6 0 1-.9 1-2s-.4-2-1-2c-.5 0-1 .9-1 2zM846.9 902.2c-.1.7-.1 1.7 0 2.2.1.4-.4 1.4-1 2.2-.7.8-.9 1.7-.6 2 .3.3 1.4-.4 2.4-1.5.9-1.2 2.6-2.1 3.6-2.1 2.2 0 1.8-2.5-.4-2.5-.8 0-2-.4-2.6-.8-.8-.5-1.3-.3-1.4.5zM211.7 886.7c-.6 3.1.1 5.5 1.4 4.7 1.2-.7 1.2-6.1 0-6.8-.5-.3-1.1.6-1.4 2.1zM201.9 889.7c-.7 4.7-.6 6.3.4 6.3 1.4 0 3.9-4.9 3.1-6.1-.6-1.1-3.4-1.2-3.5-.2zM57.2 882.1c.1 1.3.8 2.3 1.3 2.1 1.5-.3 1.2-3.5-.3-4-.9-.3-1.3.3-1 1.9z" />
</svg>